<svg xmlns="http://www.w3.org/2000/svg" width="345" height="202" fill="none"><g clip-path="url(#a)"><path fill="#2B323A" d="M345 0H0v202h345V0Z"/><path stroke="#fff" stroke-linecap="round" stroke-linejoin="round" stroke-width=".254" d="M158.736 41.898 50.398 112.482v-6.014l108.338-70.63v6.06Z"/><path fill="#F4FF66" stroke="#2B323A" stroke-linejoin="round" stroke-width=".19" d="m108.524 118.198-6.594 4.532v-5.467l6.594-4.439v5.374ZM101.928 122.734v-5.471l-9.263-4.439-.02 5.266 9.283 4.644ZM103.874 110.609l-11.208 2.214 9.263 4.439 6.594-4.439-4.649-2.214ZM127.397 127.1l-14.358 9.633v-5.406l14.358-9.606v5.379Z"/><path fill="#F4FF66" stroke="#2B323A" stroke-linejoin="round" stroke-width=".19" d="M115.115 129.031v-5.406l-12.451-5.977v5.186l12.451 6.197Z"/><path fill="#F4FF66" stroke="#2B323A" stroke-linejoin="round" stroke-width=".19" d="m105.463 126.028-6.023 4.168v-5.407l6.023-4.139v5.378ZM99.438 130.193v-5.406l-13.547-6.529v5.184l13.547 6.751Z"/><path fill="#F4FF66" stroke="#2B323A" stroke-linejoin="round" stroke-width=".19" d="m91.914 114.199-6.023 4.059 13.547 6.465 6.024-4.072-13.548-6.452ZM113.041 136.754v-5.407l-12.451-5.978v5.186l12.451 6.199Z"/><path fill="#F4FF66" stroke="#2B323A" stroke-linejoin="round" stroke-width=".19" d="m127.397 121.721-14.356 9.627-12.451-5.978 7.555-5.089-5.5-2.617 6.784-4.428 17.968 8.485Z"/><path fill="#2B323A" stroke="#fff" stroke-linecap="round" stroke-linejoin="round" stroke-width=".254" d="m219.132 69.568-60.396-27.685v-6.045l60.347 27.894.049 5.836ZM108.663 131.348l-24.785-10.98-9.996 7.767-9.213-4.371 8.35-6.708-22.62-10.558v5.986l22.339 10.465-8.49 6.651 9.382 4.465 9.707-7.886 25.049 11.058.277-5.889Z"/><mask id="b" width="13" height="15" x="185" y="81" maskUnits="userSpaceOnUse" style="mask-type:luminance"><path fill="#fff" d="m197.184 81.545-11.936.127.148 13.89 11.936-.127-.148-13.89Z"/></mask><g mask="url(#b)"><path fill="#1B1E22" d="M187.059 91.899c.161.09.341 2.28.502 2.377l5.303-3.139-.029-2.66-5.776 3.422Z"/><path fill="#424E5E" d="m191.895 89.589 3.647 2.056 1.127-.667-3.649-2.056-1.125.667Z"/><path fill="#1A2028" d="m191.904 90.211 3.65 2.058v-.625l-3.65-2.056v.623Z"/><path fill="#424E5E" d="m190.777 90.878 3.65 2.058 1.127-.667-3.649-2.058-1.128.667Z"/><path fill="#1A2028" d="m190.789 91.502 3.649 2.058v-.623l-3.651-2.058.002.623Z"/><path fill="#424E5E" d="m189.658 92.167 3.649 2.058 1.128-.667-3.65-2.056-1.127.665Z"/><path fill="#1A2028" d="m189.668 92.787 3.649 2.058-.01-.625-3.649-2.054.01.621Z"/><path fill="#424E5E" d="m188.537 93.45 3.649 2.058 1.128-.667-3.65-2.058-1.127.667Z"/><path fill="#1A2028" d="m189.753 93.687-.53-.306-.531-.3-1.063-.604-1.066-.597-.534-.298-.533-.295.53.304.531.302 1.063.603 1.064.596.533.299.536.296Z"/><path fill="#1B1E22" d="M192.911 88.367v.547s0 .063-.076.112l-.028-.537.1-.124.004.002Z"/><path fill="#424E5E" d="M185.357 92.467v.549l4.413 2.487v-.55l-4.413-2.486Z"/><path fill="#1F262F" d="m185.357 92.467 4.413 2.486 7.097-4.202a.22.22 0 0 0 .053-.043.123.123 0 0 0 .023-.067.074.074 0 0 0 0-.02.149.149 0 0 0-.078-.088l-.028-.014v.134a.037.037 0 0 1 0 .02l-.014.018-.024.019-7.022 4.157-4.258-2.402v-.087l-.162.09Z"/><path fill="#424E5E" d="M185.508 92.378v.087l4.262 2.402-.013-1.188-4.257-2.4.008 1.099Z"/><path fill="#1F262F" d="m185.496 91.28 2.769 1.56.123.07 1.365.76 7.021-4.158.021-.015.015-.02a.073.073 0 0 0 0-.02v-.02a.037.037 0 0 0 0-.02.062.062 0 0 0-.015-.017l-.023-.02-.028-.01h-.033a.193.193 0 0 0-.034 0h-.07a.08.08 0 0 0-.03 0l-.033.013-6.793 4.036-1.211-.682a2.133 2.133 0 0 1-.123-.07l-.879-.5-.48-.27-.076-.042-1.032-.583 6.795-4.023.023-.017.015-.02v-.039a.06.06 0 0 0 0-.02.139.139 0 0 0-.013-.018.093.093 0 0 0-.027-.017l-.026-.014h-.034a.165.165 0 0 0-.033 0h-.07a.083.083 0 0 0-.03.01l-.032.013a6786.564 6786.564 0 0 1-7.022 4.156v-.004Z"/><path fill="#1B1E22" d="m185.949 91.273 1.033.583 5.776-3.42-.013-1.186-6.796 4.023ZM189.77 94.951v.552l7.097-4.204v-.549l-7.097 4.201ZM189.752 93.687l.013 1.188 7.022-4.158v-1.188l-7.035 4.158Z"/><path fill="#1F262F" d="m186.982 91.856.076.042 5.775-3.42a.155.155 0 0 0 .053-.046.103.103 0 0 0 .025-.064.087.087 0 0 0 0-.023.151.151 0 0 0-.065-.078.065.065 0 0 0-.04 0v.09s.019.045-.045.085l-5.779 3.415Z"/><path fill="#1B1E22" d="M196.825 90.673a.072.072 0 0 0 0-.02.022.022 0 0 0 0-.012.03.03 0 0 0 0-.019.077.077 0 0 0-.015-.019l-.023-.017v.13a.15.15 0 0 0 .025-.016.133.133 0 0 0 .013-.02v-.007Z"/><path fill="#1B1E22" d="M196.823 90.612a.031.031 0 0 1 0 .02.022.022 0 0 1 0 .01v-.11l-.012-1.077v.011a.06.06 0 0 1 0 .02.077.077 0 0 1-.015.018l-.021.018v1.056a.09.09 0 0 1 .023.015l.015.02h.01ZM196.863 90.75v.552l.029-.02a.136.136 0 0 0 .041-.056.066.066 0 0 0 0-.034v-.551a.107.107 0 0 1-.024.066.15.15 0 0 1-.054.044h.008ZM192.746 87.25l.013 1.186c.067-.04.046-.086.046-.086l-.011-1.166v.011a.06.06 0 0 1 0 .019l-.016.019-.021.017h-.011Z"/><path fill="#424E5E" d="m188.416 92.665.123.07 3.492-4.008v-.04h-.028l-3.524 4.046-.063-.068ZM191.949 88.614h.021v.04l1.116-.661a.056.056 0 0 0 .012-.018.04.04 0 0 0 .001-.022.118.118 0 0 0-.044-.072.04.04 0 0 0-.021-.006.038.038 0 0 0-.02.006l-1.139.67.074.063Z"/><path fill="#1A2028" d="M189.77 94.952c-.729-.421-1.467-.834-2.2-1.252-.732-.418-1.47-.826-2.209-1.233.729.424 1.465.836 2.198 1.254.732.418 1.467.827 2.211 1.231ZM189.753 93.685c-.704-.408-1.416-.807-2.124-1.21-.708-.403-1.419-.8-2.133-1.19.704.409 1.416.806 2.124 1.209.707.403 1.419.792 2.133 1.191ZM191.895 89.588c.364.215.732.42 1.098.629.367.209.738.412 1.11.61-.362-.215-.732-.42-1.098-.63a41.518 41.518 0 0 0-1.11-.61ZM190.777 90.877c.274.165.553.32.826.48.273.162.554.312.837.46-.272-.165-.551-.319-.826-.478a22 22 0 0 0-.837-.462ZM190.797 92.803c-.19-.115-.38-.221-.569-.33-.19-.108-.38-.21-.57-.309.19.114.38.222.57.328.189.107.373.213.569.311Z"/></g><mask id="c" width="13" height="15" x="196" y="86" maskUnits="userSpaceOnUse" style="mask-type:luminance"><path fill="#fff" d="m208.102 86.676-11.936.127.148 13.89 11.936-.127-.148-13.89Z"/></mask><g mask="url(#c)"><path fill="#1B1E22" d="M197.975 97.028c.161.091.341 2.28.503 2.377l5.302-3.14-.029-2.66-5.776 3.423Z"/><path fill="#424E5E" d="m202.811 94.718 3.656 2.058 1.128-.667-3.65-2.058-1.134.667Z"/><path fill="#1A2028" d="m202.82 95.344 3.648 2.056v-.623l-3.65-2.058.002.625Z"/><path fill="#424E5E" d="m201.693 96.01 3.65 2.057 1.127-.667-3.649-2.056-1.128.667Z"/><path fill="#1A2028" d="m201.705 96.633 3.649 2.058-.009-.625-3.652-2.058.012.625Z"/><path fill="#424E5E" d="m200.574 97.294 3.649 2.058 1.128-.667-3.65-2.056-1.127.665Z"/><path fill="#1A2028" d="m200.586 97.92 3.649 2.056v-.623l-3.661-2.058.012.625Z"/><path fill="#424E5E" d="m199.447 98.581 3.65 2.056 1.127-.667-3.638-2.056-1.139.667Z"/><path fill="#1A2028" d="m200.669 98.816-.53-.304-.531-.302-1.063-.602-1.066-.597-.534-.298-.533-.297.53.304.531.302 1.063.603 1.064.598.533.299.536.294Z"/><path fill="#1B1E22" d="M203.827 93.494v.55s0 .062-.076.111l-.028-.537.1-.124h.004Z"/><path fill="#424E5E" d="M196.273 97.6v.549l4.409 2.485v-.549l-4.409-2.485Z"/><path fill="#1F262F" d="m196.273 97.598 4.409 2.486 7.097-4.202a.204.204 0 0 0 .053-.045.127.127 0 0 0 .025-.065v-.023a.143.143 0 0 0-.076-.085l-.03-.014v.124a.037.037 0 0 1 0 .02.139.139 0 0 1-.014.02l-.024.019-7.022 4.156-4.258-2.4V97.5l-.16.097Z"/><path fill="#424E5E" d="M196.423 97.51v.088l4.259 2.4-.013-1.188-4.259-2.4.013 1.1Z"/><path fill="#1F262F" d="m196.41 96.41 2.769 1.56.123.07 1.365.77 7.021-4.156.021-.016a.103.103 0 0 0 .015-.02.06.06 0 0 0 0-.02v-.02a.03.03 0 0 0 0-.02.063.063 0 0 0-.015-.017l-.023-.019-.028-.01-.033-.01H207.521l-.03.01a.101.101 0 0 0-.033.014c-2.265 1.34-4.531 2.68-6.795 4.025l-1.211-.684c-.042-.02-.083-.046-.123-.068l-.879-.496-.48-.27-.076-.044-1.032-.581 6.795-4.025a.09.09 0 0 0 .023-.015l.015-.02a.074.074 0 0 0 0-.02v-.02a.073.073 0 0 0 0-.02l-.013-.017a.143.143 0 0 0-.053-.03h-.167l-.032.013-7.022 4.157.002-.002Z"/><path fill="#1B1E22" d="m196.865 96.406 1.033.581 5.776-3.42-.013-1.188-6.796 4.027ZM200.682 100.084v.55l7.097-4.202v-.55l-7.097 4.202ZM200.668 98.816l.013 1.188 7.022-4.156V94.66l-7.035 4.156Z"/><path fill="#1F262F" d="m197.898 96.987.076.044 5.775-3.42a.171.171 0 0 0 .053-.044.108.108 0 0 0 .025-.067.073.073 0 0 0 0-.02.157.157 0 0 0-.065-.08.065.065 0 0 0-.04 0v.09s.019.047-.045.086l-5.779 3.411Z"/><path fill="#1B1E22" d="M207.741 95.804a.072.072 0 0 0 0-.02v-.009a.022.022 0 0 0 0-.01.03.03 0 0 0 0-.02l-.015-.019a.11.11 0 0 0-.023-.015v.13l.025-.018.013-.017v-.002Z"/><path fill="#1B1E22" d="M207.739 95.743a.06.06 0 0 1 0 .02.022.022 0 0 1 0 .01v-.108l-.012-1.077v.01a.073.073 0 0 1 0 .02l-.015.02-.021.016v1.055l.023.017a.073.073 0 0 1 .015.02l.01-.003ZM207.779 95.884v.549l.029-.02a.137.137 0 0 0 .041-.054.066.066 0 0 0 0-.034v-.552a.101.101 0 0 1-.024.065.158.158 0 0 1-.054.046h.008ZM203.66 92.381l.013 1.188c.067-.04.046-.086.046-.086l-.011-1.167v.01a.073.073 0 0 1 0 .02l-.016.02-.02.015h-.012Z"/><path fill="#424E5E" d="m199.332 97.796.123.069 3.492-4.008v-.02h-.085l-3.524 4.045-.006-.086ZM202.863 93.746h.021v.03l1.116-.659a.043.043 0 0 0 .011-.018.04.04 0 0 0 .002-.022.116.116 0 0 0-.014-.04.113.113 0 0 0-.03-.032.04.04 0 0 0-.02-.005.04.04 0 0 0-.021.005l-1.139.671.074.07Z"/><path fill="#1A2028" d="M200.682 100.083c-.729-.422-1.467-.834-2.2-1.252-.732-.418-1.47-.829-2.209-1.233.729.421 1.465.834 2.198 1.252.732.418 1.471.829 2.211 1.233ZM200.669 98.814c-.704-.408-1.416-.806-2.124-1.208a154.5 154.5 0 0 0-2.133-1.192c.704.409 1.416.808 2.124 1.21.707.403 1.419.793 2.133 1.19ZM202.811 94.717c.364.216.732.42 1.098.63.367.212.739.413 1.11.61-.362-.216-.732-.42-1.098-.63-.367-.211-.737-.413-1.11-.61ZM201.693 96.008c.274.167.553.321.826.48.273.16.554.314.837.462-.272-.165-.551-.32-.826-.48-.275-.16-.554-.316-.837-.462ZM201.725 97.934c-.19-.114-.38-.222-.57-.328-.19-.106-.379-.212-.569-.311.19.116.379.224.569.33.19.106.365.21.57.31Z"/></g><path fill="#2B323A" stroke="#fff" stroke-linecap="round" stroke-linejoin="round" stroke-width=".254" d="m73.02 117.055-.28 5.894-8.195 6.661.118-5.847 8.357-6.708Z"/><path fill="#2B323A" stroke="#fff" stroke-linecap="round" stroke-linejoin="round" stroke-width=".254" d="m73.876 128.134-.243 5.931-9.088-4.454.118-5.847 9.213 4.37Z"/><path fill="#2B323A" stroke="#fff" stroke-linecap="round" stroke-linejoin="round" stroke-width=".254" d="m83.87 120.367-.532 5.815-9.705 7.882.243-5.93 9.995-7.767ZM114.788 86.99l-.112 1.475-10.229 8.082.076-1.553 10.265-8.004ZM108.664 131.348l-.281 5.892-10.69 6.277.414-5.847 10.557-6.322ZM219.074 63.732l.057 5.836-6.945 5.602.115-5.845 6.773-5.593Z"/><path fill="#2B323A" stroke="#fff" stroke-linecap="round" stroke-linejoin="round" stroke-width=".254" d="m254.277 92.385-41.939-16.979V69.36l41.88 17.188.059 5.838Z"/><path fill="#2B323A" stroke="#fff" stroke-linecap="round" stroke-linejoin="round" stroke-width=".254" d="m254.22 86.55.057 5.837-7.113 5.47.116-5.847 6.94-5.46ZM310.11 120.769l-54.548-24.37v-6.046l55.176 23.805-.628 6.611ZM172.078 172.855l.002 5.698-8.371 6.808-.053-5.929 8.422-6.577Z"/><path fill="#F4FF66" stroke="#2B323A" stroke-linejoin="round" stroke-width=".19" d="m129.635 141.827-12.619 8.551v-5.387l12.619-8.552v5.388Z"/><path fill="#F4FF66" stroke="#2B323A" stroke-linejoin="round" stroke-width=".19" d="M117.017 150.406V145l-12.449-5.977v5.186l12.449 6.197Z"/><path fill="#F4FF66" stroke="#2B323A" stroke-linejoin="round" stroke-width=".19" d="M129.635 136.458 117.017 145l-12.449-5.977 12.647-8.431 12.42 5.866Z"/><path fill="#2B323A" stroke="#fff" stroke-linecap="round" stroke-linejoin="round" stroke-width=".254" d="m107.32 142.041-.243 5.928-9.384-4.452.414-5.847 9.213 4.371ZM107.078 147.97l.243-5.929 2.964 3.645-.347 5.999-2.86-3.715Z"/><path fill="#2B323A" stroke="#fff" stroke-linecap="round" stroke-linejoin="round" stroke-width=".254" d="m110.219 145.789-.281 5.895-9.153 7.426.116-5.845 9.318-7.476Z"/><mask id="d" width="21" height="21" x="162" y="107" maskUnits="userSpaceOnUse" style="mask-type:luminance"><path fill="#fff" d="m181.134 107.722-19.046.96.931 18.542 19.046-.96-.931-18.542Z"/></mask><g mask="url(#d)"><path fill="#424E5E" d="m162.703 121.021 1.53 4.671 7.666-5.026-.275-5.49-8.921 5.845Z"/><path fill="#424E5E" d="m180.601 120.836.275 5.492-9.46-4.903-.275-5.493 4.934 2.567.347.19 4.179 2.147Z"/><path fill="#1F262F" d="m174.366 120.816-4.653 3.04-1.543-.8 4.655-3.04 1.541.8Z"/><path fill="#3E4957" d="m174.316 119.986-4.623 3.864-1.019-.525 4.653-3.04.989-.299Z" opacity=".15"/><path fill="#1F262F" d="m175.856 120.788-4.653 3.041-1.551-.796 4.653-3.041 1.551.796Z"/><path fill="#3E4957" d="m175.802 119.961-4.621 3.861-1.021-.528 4.655-3.04.987-.293Z" opacity=".15"/><path fill="#1F262F" d="m177.346 120.761-4.653 3.04-1.543-.802 4.654-3.04 1.542.802Z"/><path fill="#3E4957" d="m177.292 119.936-4.621 3.861-1.021-.53 4.655-3.041.987-.29Z" opacity=".15"/><path fill="#1F262F" d="m178.835 120.734-4.655 3.04-1.543-.8 4.655-3.04 1.543.8Z"/><path fill="#3E4957" d="m178.801 119.904-4.641 3.875-1.019-.53 4.655-3.041 1.005-.304Z" opacity=".15"/><path fill="#1F262F" d="m180.344 120.706-4.655 3.041-1.543-.8 4.656-3.041 1.542.8Z"/><path fill="#1A1D20" d="M180.309 119.966a.339.339 0 0 0 .121.04.634.634 0 0 0 .26-.014.426.426 0 0 0 .118-.051.24.24 0 0 0 .068-.063.156.156 0 0 0 .027-.089l.038.737v.017a.184.184 0 0 1-.095.133.371.371 0 0 1-.118.054.633.633 0 0 1-.26.013.52.52 0 0 1-.123-.04l-.036-.737Z"/><path fill="#1F262F" d="M180.402 119.905a.137.137 0 0 0 .038.015.164.164 0 0 0 .044.009c.015.002.03.002.046 0h.045a.177.177 0 0 0 .046 0l.038-.024.039-.021a.116.116 0 0 0 .029-.025.101.101 0 0 0 .019-.027.096.096 0 0 0 0-.024v-.185l.038.021a.22.22 0 0 1 .106.111v.03a.141.141 0 0 1-.028.089.353.353 0 0 1-.186.114.634.634 0 0 1-.26.014.485.485 0 0 1-.122-.04l-9.204-4.78-3.419 2.252-.103-.053 3.53-2.311 9.299 4.833.005.002Z"/><path fill="#1A1D20" d="M180.624 118.3a.108.108 0 0 0 .03-.026.235.235 0 0 0 .019-.025.122.122 0 0 0 0-.027v-.013l.08 1.604a.062.062 0 0 1-.012.026.083.083 0 0 1-.019.027.165.165 0 0 1-.068.044l-.042.015h-.18l-.038-.015-.08-1.589.044.017h.042a.185.185 0 0 0 .047 0 .177.177 0 0 0 .046 0 .155.155 0 0 0 .043 0l.044-.015.036-.019.008-.004Z"/><path fill="#1F262F" d="M180.68 118.208v.014a.057.057 0 0 1 0 .026.193.193 0 0 1-.049.052l-.036.019a.332.332 0 0 1-.088.021.69.69 0 0 1-.091 0h-.042l-.043-.018-9.299-4.832-4.847 3.172 1.397.725.105.056.647.334 1.425.741.347.19 5.384 2.796a.095.095 0 0 1 .03.019.13.13 0 0 1 .023.024.08.08 0 0 1 .011.025v.017a.02.02 0 0 1 0 .011.07.07 0 0 1 0 .029c-.005.009-.012.017-.019.025a.125.125 0 0 1-.03.026l-.036.019a.188.188 0 0 1-.042.014.338.338 0 0 1-.045 0 .353.353 0 0 1-.046 0h-.089l-.042-.018-5.742-2.993-.313-.163-3.57-1.855 5.429-3.553 9.616 4.992.03.021.021.023c.005.008.01.017.013.026a.038.038 0 0 1-.009.015Z"/><path fill="#1F262F" d="m180.324 118.315.08 1.587-9.299-4.831-.08-1.589 9.299 4.833ZM180.307 119.967l.036.737-9.203-4.779-.036-.736 9.203 4.778ZM175.264 123.264l.038.015h.133a.17.17 0 0 0 .045 0 .121.121 0 0 0 .042-.013.17.17 0 0 0 .04-.021l.028-.023a.097.097 0 0 0 .019-.026.066.066 0 0 0 .012-.027v-.184l.038.021a.22.22 0 0 1 .074.055.153.153 0 0 1 .038.114.21.21 0 0 1-.095.122.464.464 0 0 1-.118.053.65.65 0 0 1-.26.011.464.464 0 0 1-.142-.036l-9.713-5.043.19-.126v.116l9.631 4.992Z"/><path fill="#1F262F" d="m171.105 115.189.036.736-2.816 1.847-.653-.336 3.433-2.247ZM171.017 113.482l.079 1.589-3.531 2.309-1.397-.726 4.849-3.172Z"/><path fill="#1B1D1F" d="M171.017 113.482c-.801.542-3.014 1.996-3.819 2.53l-1.007.663-.021-.013 1.011-.667c.811-.525 3.02-1.984 3.836-2.503v-.01Z"/><path fill="#3E4957" d="M179.648 119.31a.24.24 0 0 1-.011.048.301.301 0 0 1-.027.042.065.065 0 0 1-.03.022.037.037 0 0 1-.029 0l-1.518-.788-1.59.026-5.158.105-.01-.19 4.809-.082 1.96-.034 1.581.81.015.015a.045.045 0 0 1 0 .028l.008-.002Z" opacity=".15"/><path fill="#3E4957" d="m178.191 118.365 1.581.812-.078.167-1.518-.791-.258-.064.082-.076.189-.046.002-.002Z"/><path fill="#424E5E" d="M179.788 119.189a.07.07 0 0 1 0 .029v.011a.093.093 0 0 1-.012.046.152.152 0 0 1-.024.041.087.087 0 0 1-.031.023.045.045 0 0 1-.028 0 .035.035 0 0 1-.014-.006.024.024 0 0 1-.009-.011.073.073 0 0 1 0-.036.149.149 0 0 1 .038-.089.133.133 0 0 1 .03-.023.048.048 0 0 1 .029 0 .05.05 0 0 1 .017.015h.004Z"/><path fill="#3E4957" d="M178.193 118.364H178.172v.036a.038.038 0 0 1 0 .015.029.029 0 0 1 0 .013.038.038 0 0 1 0 .015V118.495l-6.928.119a.095.095 0 0 1-.057-.019.097.097 0 0 1-.033-.051.095.095 0 0 1 .014-.08.086.086 0 0 1 .031-.026.086.086 0 0 1 .041-.01l6.957-.119-.004.055Z"/></g><mask id="e" width="21" height="21" x="158" y="109" maskUnits="userSpaceOnUse" style="mask-type:luminance"><path fill="#fff" d="m178.051 109.739-19.574.986.931 18.542 19.575-.986-.932-18.542Z"/></mask><g mask="url(#e)"><path fill="#424E5E" d="m159.094 123.062 1.563 4.671 7.887-5.028-.275-5.492-9.175 5.849Z"/><path fill="#424E5E" d="m177.486 122.854.275 5.49-9.714-4.897-.276-5.492 5.075 2.56.357.18 4.283 2.159Z"/><path fill="#1F262F" d="m171.08 122.843-4.786 3.04-1.575-.788 4.788-3.052 1.573.8Z"/><path fill="#1B1E22" d="m171.028 122.016-4.756 3.869-1.047-.529 4.787-3.052 1.016-.288Z" opacity=".15"/><path fill="#1F262F" d="m172.611 122.812-4.788 3.052-1.587-.8 4.788-3.041 1.587.789Z"/><path fill="#1B1E22" d="m172.557 121.984-4.756 3.869-1.047-.528 4.795-3.052 1.008-.289Z" opacity=".15"/><path fill="#1F262F" d="m174.14 122.782-4.786 3.052-1.584-.798 4.787-3.052 1.583.798Z"/><path fill="#1B1E22" d="m174.087 121.957-4.745 3.869-1.047-.528 4.773-3.052 1.019-.289Z" opacity=".15"/><path fill="#1F262F" d="m175.671 122.757-4.786 3.04-1.586-.8 4.788-3.05 1.584.81Z"/><path fill="#1B1E22" d="m175.64 121.926-4.776 3.873-1.048-.529 4.788-3.052 1.036-.292Z" opacity=".15"/><path fill="#1F262F" d="m177.224 122.724-4.79 3.052-1.582-.8 4.787-3.04 1.585.788ZM177.284 121.921l.038.015.046.009a.185.185 0 0 0 .047 0h.093a.233.233 0 0 0 .084-.036.133.133 0 0 0 .03-.023.115.115 0 0 0 .019-.026.061.061 0 0 0 0-.027v-.192l.04.019a.222.222 0 0 1 .108.112.14.14 0 0 1 0 .029.135.135 0 0 1-.028.089.368.368 0 0 1-.192.116.681.681 0 0 1-.266.013.535.535 0 0 1-.127-.04l-9.45-4.765-3.53 2.251-.106-.055 3.63-2.314 9.559 4.819.005.006Z"/><path fill="#1F262F" d="m177.187 121.985.036.737-9.451-4.766-.038-.737 9.453 4.766Z"/><path fill="#1A1D20" d="m172.512 125.182.036.731a.082.082 0 0 1 0 .044.183.183 0 0 1-.054.078l-.039.028a.392.392 0 0 1-.122.054.662.662 0 0 1-.266.013.535.535 0 0 1-.127-.04l-.036-.737a.371.371 0 0 0 .126.04c.089.014.18.01.267-.014a.45.45 0 0 0 .122-.051.212.212 0 0 0 .098-.122.096.096 0 0 0 0-.024h-.005Z"/><path fill="#1A1D20" d="m172.286 123.596.082 1.604a.126.126 0 0 1-.013.026.101.101 0 0 1-.019.027l-.029.023-.041.02-.044.016h-.14l-.044-.012-.038-.015-.07-1.577a.114.114 0 0 0 .043.017l.044.009h.095a.17.17 0 0 0 .045 0l.042-.015a.169.169 0 0 0 .087-.068.07.07 0 0 0 0-.029v-.026Z"/><path fill="#1F262F" d="M171.999 125.29c.027.01.055.018.083.025h.14l.042-.014a.168.168 0 0 0 .042-.022.104.104 0 0 0 .028-.023l.021-.025a.131.131 0 0 0 0-.028v-.183l.038.019a.247.247 0 0 1 .076.055.152.152 0 0 1 .04.09v.024a.207.207 0 0 1-.099.122.363.363 0 0 1-.121.053.645.645 0 0 1-.266.013.468.468 0 0 1-.127-.039l-9.976-5.03.201-.128v.118c3.294 1.656 6.587 3.314 9.878 4.973Z"/><path fill="#1B1E22" d="m171.919 123.707.079 1.589-9.868-4.979-.079-1.588c3.288 1.655 6.577 3.315 9.868 4.978ZM171.9 125.354l.038.738-9.98-5.032-.038-.738 9.98 5.032Z"/><path fill="#1F262F" d="m167.735 117.219.038.737-2.904 1.851c-.22-.114-.442-.224-.664-.336l3.53-2.252Z"/><path fill="#1F262F" d="m167.621 115.449.472 1.965c-1.21.772-2.639 1.811-3.848 2.583-.48-.242-1.708-.977-2.183-1.218 1.661-1.059 3.896-2.271 5.559-3.33Z"/><path fill="#1B1D1F" d="M167.649 115.514c-.823.541-3.101 1.999-3.928 2.533l-1.036.655-.023-.013 1.04-.669c.835-.524 3.108-1.988 3.945-2.506h.002Z"/><path fill="#1B1E22" d="M176.508 121.328v.011a.104.104 0 0 1-.011.046.188.188 0 0 1-.027.042.075.075 0 0 1-.032.023.045.045 0 0 1-.028 0l-1.572-.783-1.635.03-5.289.095-.01-.19 4.944-.089 2.015-.036 1.623.807a.048.048 0 0 1 .024.042l-.002.002Z" opacity=".15"/><path fill="#1B1E22" d="m175.015 120.387 1.622.807-.079.168-1.568-.789-.265-.063.085-.076.205-.047Z"/><path fill="#424E5E" d="M176.654 121.209a.062.062 0 0 1 .009.026v.012a.141.141 0 0 1-.038.087.075.075 0 0 1-.032.023.045.045 0 0 1-.028 0 .031.031 0 0 1-.023-.017.059.059 0 0 1 0-.037.193.193 0 0 1 .013-.047.118.118 0 0 1 .027-.04.078.078 0 0 1 .03-.024.051.051 0 0 1 .03 0 .048.048 0 0 1 .016.013l-.004.004Z"/><path fill="#1B1E22" d="M175.016 120.387h-.023V120.436a.038.038 0 0 1 0 .015v.029a.029.029 0 0 0 0 .013v.012a.02.02 0 0 0 0 .011l-7.12.127a.095.095 0 0 1-.059-.017.093.093 0 0 1-.017-.131.076.076 0 0 1 .032-.027.092.092 0 0 1 .04-.011l7.151-.129-.004.059Z"/></g><path fill="#2B323A" stroke="#fff" stroke-linecap="round" stroke-linejoin="round" stroke-width=".254" d="m163.657 179.432.053 5.929-62.958-26.184.118-5.845 62.787 26.1ZM250.347 162.409l.091 1.641-145.991-67.503.076-1.553 145.824 67.415ZM261.179 154.678l.093 1.642-146.596-67.855.112-1.475 146.391 67.688Z"/><path fill="#2B323A" stroke="#fff" stroke-linecap="round" stroke-linejoin="round" stroke-width=".254" d="m226.305 165.422 14.851 5.422 69.002-50.071.628-6.613-69.797 51.042-14.652-5.488-.032 5.708ZM255.561 96.398l-8.397 1.458.116-5.847 8.281-1.656v6.045Z"/><path fill="#2B323A" stroke="#fff" stroke-linecap="round" stroke-linejoin="round" stroke-width=".254" d="m172.08 178.553 54.225-13.129.032-5.701-54.257 13.133v5.697Z"/><path fill="#80D6FF" stroke="#fff" stroke-linecap="round" stroke-linejoin="round" stroke-width=".254" d="m189.523 141.729-23.209 15.392V146.86l23.209-15.298v10.167ZM166.314 157.114V146.85l-30.556-14.788v9.565l30.556 15.487ZM189.523 131.552l-23.209 15.297-30.556-14.788 23.303-14.942 30.462 14.433Z"/><path fill="#F4FF66" stroke="#2B323A" stroke-linejoin="round" stroke-width=".19" d="m235.941 98.054-6.509 4.447v-5.397l6.509-4.418v5.368Z"/><path fill="#F4FF66" stroke="#2B323A" stroke-linejoin="round" stroke-width=".19" d="M229.433 102.509v-5.407l-6.316-3.065v5.186l6.316 3.286ZM235.942 92.683l-6.509 4.419-6.316-3.066 6.54-4.305 6.285 2.953ZM189.845 103.528l-12.659 8.69v-5.406l12.659-8.662v5.378Z"/><path fill="#F4FF66" stroke="#2B323A" stroke-linejoin="round" stroke-width=".19" d="M177.187 112.24v-5.406l-12.451-5.979v5.186l12.451 6.199Z"/><path fill="#F4FF66" stroke="#2B323A" stroke-linejoin="round" stroke-width=".19" d="m189.847 98.17-12.66 8.664-12.451-5.978 12.69-8.55 12.421 5.865ZM221.298 151.691l-12.659 8.693v-5.41l12.659-8.652v5.369Z"/><path fill="#F4FF66" stroke="#2B323A" stroke-linejoin="round" stroke-width=".19" d="M208.64 160.38v-5.407l-6.316-3.065v5.186l6.316 3.286Z"/><path fill="#F4FF66" stroke="#2B323A" stroke-linejoin="round" stroke-width=".19" d="m221.299 146.312-12.659 8.662-6.316-3.065 12.69-8.55 6.285 2.953ZM211.004 69.055l-14.838 10.186v-6.336l14.838-10.153v6.303ZM196.166 79.242v-6.336l-24.857-11.875v6.077l24.857 12.134Z"/><path fill="#F4FF66" stroke="#2B323A" stroke-linejoin="round" stroke-width=".19" d="m210.959 62.79-14.836 10.152-24.824-11.922 14.87-10.022 24.79 11.791ZM159.744 84.35 135.553 87v-6.336l24.191-2.617v6.303ZM135.552 87v-6.337l-11.577-5.427v6.077L135.552 87Z"/><path fill="#F4FF66" stroke="#2B323A" stroke-linejoin="round" stroke-width=".19" d="m159.699 78.08-24.147 2.582-11.577-5.427 12.335-8.26 23.389 11.105Z"/><path fill="#80FFC6" stroke="#15995E" stroke-linecap="round" stroke-linejoin="round" stroke-width=".254" d="m140.937 90.454-7.105 4.881.011-6.33 7.094-4.857v6.306Z"/><path fill="#80FFC6" stroke="#15995E" stroke-linecap="round" stroke-linejoin="round" stroke-width=".254" d="M133.835 95.327v-6.336l-17.431-8.456v6.077l17.431 8.715Z"/><path fill="#80FFC6" stroke="#15995E" stroke-linecap="round" stroke-linejoin="round" stroke-width=".254" d="m140.926 84.135-7.095 4.858-17.427-8.457 7.12-4.737 17.402 8.336Z"/><path fill="#F4FF66" stroke="#2B323A" stroke-linejoin="round" stroke-width=".19" d="m225.495 121.048-12.659 8.69v-5.399l12.659-8.663v5.372Z"/><path fill="#F4FF66" stroke="#2B323A" stroke-linejoin="round" stroke-width=".19" d="M212.839 129.764v-5.407l-12.45-5.976v5.186l12.45 6.197Z"/><path fill="#F4FF66" stroke="#2B323A" stroke-linejoin="round" stroke-width=".19" d="m225.497 115.696-12.658 8.662-12.45-5.977 12.688-8.551 12.42 5.866Z"/><path stroke="#fff" stroke-width=".182" d="M196.07 67.026V46.25h37.077"/><path fill="#fff" d="M203.126 39.885h.506v3.119h1.933v.434h-2.439v-3.553Zm4.433 3.605c-.338 0-.638-.077-.899-.23a1.634 1.634 0 0 1-.611-.648 2.053 2.053 0 0 1-.214-.95c0-.36.071-.676.214-.952a1.59 1.59 0 0 1 .611-.647c.261-.154.561-.23.899-.23.338 0 .637.076.898.23.261.153.463.369.606.647.147.276.22.593.22.951 0 .355-.073.672-.22.951a1.602 1.602 0 0 1-.606.648 1.74 1.74 0 0 1-.898.23Zm-1.207-1.829c0 .279.05.524.151.737.101.212.242.378.424.496.184.119.395.178.632.178s.445-.06.627-.178c.184-.118.327-.284.428-.496.101-.213.152-.458.152-.737 0-.278-.051-.524-.152-.736a1.129 1.129 0 0 0-1.055-.674c-.241 0-.453.059-.638.177-.181.115-.322.28-.423.497a1.757 1.757 0 0 0-.146.736Zm3.595-1.776h1.667c.365 0 .637.08.815.24.181.16.271.385.271.674 0 .38-.162.638-.486.773v.01a.843.843 0 0 1 .47.32c.105.15.157.329.157.538 0 .324-.097.57-.292.742-.195.17-.476.255-.841.255h-1.761v-3.552Zm1.719 3.135c.449 0 .674-.203.674-.607 0-.201-.056-.35-.167-.444-.112-.094-.281-.14-.507-.14h-1.212v1.19h1.212Zm-.126-1.604c.439 0 .659-.188.659-.564 0-.189-.056-.326-.168-.413-.108-.09-.271-.136-.491-.136h-1.086v1.113h1.086Zm2.034-1.531h1.667c.366 0 .637.08.815.24.181.16.272.385.272.674 0 .38-.162.638-.486.773v.01a.847.847 0 0 1 .47.32.92.92 0 0 1 .157.538c0 .324-.098.57-.293.742-.195.17-.475.255-.841.255h-1.761v-3.552Zm1.719 3.135c.449 0 .674-.203.674-.607 0-.201-.056-.35-.167-.444-.111-.094-.28-.14-.507-.14h-1.212v1.19h1.212Zm-.125-1.604c.439 0 .658-.188.658-.564 0-.189-.056-.326-.167-.413-.108-.09-.272-.136-.491-.136h-1.087v1.113h1.087Zm2.074-1.531 1.029 1.62 1.003-1.62h.575l-1.354 2.105v1.447h-.496V41.99l-1.348-2.105h.591Zm3.99 0h1.667c.366 0 .637.08.815.24.181.16.272.385.272.674 0 .38-.162.638-.486.773v.01a.847.847 0 0 1 .47.32.92.92 0 0 1 .157.538c0 .324-.098.57-.293.742-.195.17-.475.255-.841.255h-1.761v-3.552Zm1.719 3.135c.449 0 .674-.203.674-.607 0-.201-.056-.35-.167-.444-.112-.094-.28-.14-.507-.14h-1.212v1.19h1.212Zm-.125-1.604c.439 0 .658-.188.658-.564 0-.189-.056-.326-.167-.413-.108-.09-.272-.136-.491-.136h-1.087v1.113h1.087Zm3.131-1.531h.575l1.415 3.553h-.533l-.365-.951h-1.63l-.371.95h-.507l1.416-3.552Zm.935 2.189-.653-1.693-.658 1.693h1.311Zm1.626-2.19h1.661c.383 0 .672.086.867.257.195.17.293.423.293.758 0 .303-.084.543-.251.72-.167.175-.409.28-.726.32l1.061 1.498h-.622l-1.035-1.488h-.741v1.489h-.507v-3.553Zm1.619 1.63c.237 0 .413-.048.528-.145.115-.098.172-.25.172-.455 0-.202-.057-.352-.172-.45-.115-.097-.291-.145-.528-.145h-1.112v1.196h1.112ZM244.708 63.404h1.609c.383 0 .672.086.867.256.195.171.293.424.293.758 0 .338-.105.597-.314.778-.205.181-.503.272-.893.272h-1.055v1.489h-.507v-3.552Zm1.567 1.63c.237 0 .413-.048.528-.146.115-.097.172-.249.172-.454 0-.202-.057-.352-.172-.45-.115-.097-.291-.146-.528-.146h-1.06v1.196h1.06Zm1.882-1.63h1.661c.383 0 .672.086.867.256.195.171.293.424.293.758 0 .303-.084.543-.251.721-.167.174-.409.28-.726.319l1.06 1.499h-.621l-1.035-1.489h-.742v1.489h-.506v-3.552Zm1.619 1.63c.237 0 .413-.048.528-.146.115-.097.172-.249.172-.454 0-.202-.057-.352-.172-.45-.115-.097-.291-.146-.528-.146h-1.113v1.196h1.113Zm3.411 1.975c-.338 0-.638-.076-.899-.23a1.634 1.634 0 0 1-.611-.647 2.053 2.053 0 0 1-.215-.951c0-.359.072-.676.215-.951a1.59 1.59 0 0 1 .611-.648c.261-.153.561-.23.899-.23.337 0 .637.077.898.23.261.153.463.37.606.648.146.275.22.592.22.95 0 .356-.074.673-.22.952a1.601 1.601 0 0 1-.606.647c-.261.154-.561.23-.898.23Zm-1.207-1.828c0 .278.05.524.151.736.101.213.242.378.423.497.185.118.396.177.633.177.236 0 .445-.059.626-.177a1.17 1.17 0 0 0 .429-.497c.101-.212.151-.458.151-.736 0-.279-.05-.524-.151-.737a1.129 1.129 0 0 0-1.055-.674c-.241 0-.453.06-.638.178-.181.115-.322.28-.423.496a1.742 1.742 0 0 0-.146.737Zm4.641-1.776h.506v1.577l1.557-1.578h.601l-1.635 1.646 1.745 1.907h-.653l-1.615-1.776v1.776h-.506v-3.552Zm4.443 3.604c-.338 0-.638-.076-.899-.23a1.634 1.634 0 0 1-.611-.647 2.052 2.052 0 0 1-.214-.951c0-.359.071-.676.214-.951a1.59 1.59 0 0 1 .611-.648c.261-.153.561-.23.899-.23.338 0 .637.077.898.23.262.153.464.37.606.648.147.275.22.592.22.95 0 .356-.073.673-.22.952a1.588 1.588 0 0 1-.606.647c-.261.154-.56.23-.898.23Zm-1.207-1.828c0 .278.051.524.152.736.101.213.242.378.423.497.184.118.395.177.632.177s.446-.059.627-.177c.184-.119.327-.284.428-.497.101-.212.152-.458.152-.736 0-.279-.051-.524-.152-.737a1.129 1.129 0 0 0-1.055-.674c-.24 0-.453.06-.638.178-.181.115-.322.28-.423.496a1.757 1.757 0 0 0-.146.737Zm3.36.005c0-.279.064-.52.193-.726.129-.21.312-.371.549-.486.24-.115.522-.176.846-.183l.183-.005v-.533h.507v.533l.183.005c.324.007.604.068.841.183.24.115.425.277.554.486.128.205.193.447.193.726 0 .279-.065.522-.193.731a1.296 1.296 0 0 1-.554.481 2.008 2.008 0 0 1-.841.183l-.183.005v.549h-.507v-.549l-.183-.005a2.043 2.043 0 0 1-.846-.183 1.3 1.3 0 0 1-.549-.48 1.364 1.364 0 0 1-.193-.732Zm.507 0c0 .31.097.55.292.72.195.172.467.257.815.257h.157v-1.954h-.157c-.348 0-.62.085-.815.256-.195.17-.292.411-.292.721Zm1.928.977c.348 0 .62-.085.815-.256.195-.17.292-.411.292-.721s-.097-.55-.292-.721c-.195-.17-.467-.256-.815-.256h-.157v1.954h.157Zm2.269-2.758h2.477v.433h-1.97v1.097h1.87v.434h-1.87v1.154h1.985v.434h-2.492v-3.552Z"/><path stroke="#fff" stroke-width=".182" d="M134.126 74.835v-12.31H56.215M101.135 113.435v-25.03H51.717"/><path fill="#fff" d="M58.583 56.162h1.609c.383 0 .672.086.867.256.195.17.293.424.293.758 0 .338-.105.597-.314.778-.205.181-.503.272-.893.272h-1.056v1.489h-.506v-3.553Zm1.567 1.63c.237 0 .413-.049.528-.146.115-.098.172-.249.172-.455 0-.202-.057-.351-.172-.449-.115-.097-.291-.146-.528-.146h-1.06v1.196h1.06Zm1.882-1.63h.506v3.12h1.933v.433h-2.44v-3.553Zm4.24 0h.574l1.416 3.553h-.533l-.366-.951h-1.63l-.37.95h-.507l1.416-3.552Zm.935 2.19-.653-1.693-.659 1.692h1.312Zm1.432.982 2.074-2.738H68.64v-.434h2.69v.408l-2.058 2.711h2.11v.434H68.64v-.382Zm4.505-3.172h.574l1.416 3.553h-.533l-.365-.951h-1.63l-.371.95h-.507l1.416-3.552Zm.935 2.19-.653-1.693-.658 1.692h1.31Zm4.038 1.415a1.78 1.78 0 0 1-.878-.214 1.548 1.548 0 0 1-.6-.632 2.094 2.094 0 0 1-.215-.977c0-.373.071-.697.214-.972.146-.279.35-.491.611-.637.262-.15.561-.225.899-.225.41 0 .747.098 1.008.293.265.195.436.466.512.815h-.517c-.153-.453-.488-.68-1.003-.68a1.22 1.22 0 0 0-.643.168 1.104 1.104 0 0 0-.428.485 1.79 1.79 0 0 0-.146.753c0 .425.108.762.324 1.013.219.251.519.377.898.377.345 0 .606-.098.784-.293.18-.199.273-.456.277-.773h-1.181v-.418h1.677v1.865h-.423v-.507h-.016c-.216.373-.6.56-1.154.56Zm3.501-3.605h.575l1.416 3.553h-.533l-.366-.951h-1.63l-.371.95h-.507l1.416-3.552Zm.935 2.19-.653-1.693-.658 1.692h1.311Zm1.626-2.19h1.661c.383 0 .672.086.867.256.196.17.293.424.293.758 0 .303-.084.543-.25.72-.168.175-.41.281-.727.32l1.06 1.499h-.621l-1.034-1.49h-.742v1.49h-.507v-3.553Zm1.62 1.63c.236 0 .412-.049.527-.146.115-.098.173-.249.173-.455 0-.202-.058-.351-.173-.449-.115-.097-.29-.146-.527-.146h-1.113v1.196h1.112Zm1.91-1.63h1.37c.54 0 .952.155 1.237.465.29.307.434.74.434 1.301 0 .568-.153 1.008-.46 1.322-.303.31-.73.465-1.28.465h-1.3v-3.553Zm1.301 3.12c.404 0 .71-.12.92-.356.209-.237.313-.57.313-.998 0-.432-.104-.76-.313-.987-.21-.23-.52-.345-.935-.345h-.779v2.685h.794Zm2.403-3.12h2.477v.434h-1.97v1.097h1.87v.434h-1.87v1.154h1.985v.434h-2.492v-3.553Zm3.25 0h.643l1.839 2.895v-2.895h.496v3.553h-.627l-1.854-2.926v2.926h-.497v-3.553Zm6.429 3.605c-.328 0-.624-.073-.889-.22a1.58 1.58 0 0 1-.627-.637 2.056 2.056 0 0 1-.224-.987c0-.37.076-.69.23-.961.153-.276.36-.486.621-.633.265-.146.561-.219.889-.219.397 0 .731.101 1.003.303.275.202.452.488.532.857h-.517a1 1 0 0 0-.376-.549 1.048 1.048 0 0 0-.642-.193c-.244 0-.458.06-.643.178a1.168 1.168 0 0 0-.428.496 1.643 1.643 0 0 0-.152.726c0 .282.049.531.146.747.101.213.244.378.429.497.184.118.4.177.648.177.257 0 .473-.066.647-.198.178-.136.303-.33.376-.58h.518c-.08.383-.258.679-.533.888-.272.205-.608.308-1.008.308Zm3.255-3.605h.575l1.415 3.553h-.532l-.366-.951h-1.63l-.371.95h-.507l1.416-3.552Zm.935 2.19-.653-1.693-.658 1.692h1.311Zm1.626-2.19h2.476v.434h-1.969v1.097h1.87v.434h-1.87v1.588h-.507v-3.553Zm3.183 0h2.477v.434h-1.97v1.097h1.871v.434h-1.871v1.154h1.985v.434h-2.492v-3.553Z"/><path stroke="#fff" stroke-width=".182" d="M169.326 100.819V32.994h-55.904"/><path fill="#fff" d="M115.676 21.178h1.61c.383 0 .672.085.867.256.195.17.292.423.292.757 0 .338-.104.598-.313.779-.206.181-.503.271-.893.271h-1.056v1.49h-.507v-3.553Zm1.568 1.63c.237 0 .413-.049.527-.146.115-.098.173-.25.173-.455 0-.202-.058-.352-.173-.45-.114-.097-.29-.146-.527-.146h-1.061v1.197h1.061Zm2.856 1.975c-.262 0-.493-.056-.695-.168a1.188 1.188 0 0 1-.465-.49 1.698 1.698 0 0 1-.162-.768c0-.293.056-.547.167-.763.111-.22.265-.389.46-.507.198-.119.425-.178.679-.178.421 0 .74.13.956.392.219.258.329.618.329 1.082v.052h-2.121c.003.275.08.501.23.679.153.178.364.266.632.266a.803.803 0 0 0 .47-.13.666.666 0 0 0 .267-.366h.491c-.07.279-.213.498-.429.658-.216.16-.486.24-.809.24Zm.778-1.735c-.024-.244-.11-.43-.256-.559a.773.773 0 0 0-.538-.193.782.782 0 0 0-.554.204.865.865 0 0 0-.266.548h1.614Zm2.243 1.735a1.44 1.44 0 0 1-.7-.168 1.207 1.207 0 0 1-.481-.49 1.636 1.636 0 0 1-.172-.779c0-.303.057-.563.172-.778.118-.216.279-.38.481-.492.205-.11.438-.167.7-.167.313 0 .576.079.788.235.213.154.351.378.413.674h-.496a.64.64 0 0 0-.256-.376.766.766 0 0 0-.444-.125.827.827 0 0 0-.632.261c-.161.17-.241.427-.241.768s.08.6.241.773c.163.17.374.256.632.256a.706.706 0 0 0 .444-.14.787.787 0 0 0 .266-.419h.497a1.204 1.204 0 0 1-.424.716c-.215.167-.478.25-.788.25Zm2.536-2.404h-1.009v-.417h2.487v.418h-1.008v2.35h-.47v-2.35Zm3.117 2.404a1.45 1.45 0 0 1-.721-.173 1.217 1.217 0 0 1-.471-.501 1.668 1.668 0 0 1-.167-.763c0-.29.056-.542.167-.758.112-.219.269-.386.471-.501.205-.119.445-.178.721-.178.275 0 .513.06.715.178.206.115.364.282.476.502.111.215.167.468.167.757 0 .29-.056.543-.167.763-.112.216-.27.383-.476.501-.202.115-.44.173-.715.173Zm-.873-1.437c0 .32.077.571.23.752.153.181.367.274.643.277.275-.003.489-.096.642-.277.153-.18.23-.432.23-.752s-.077-.571-.23-.752c-.153-.181-.367-.274-.642-.277-.276.003-.49.096-.643.277-.153.18-.23.432-.23.752Zm4.131-1.437a1.105 1.105 0 0 1 1.045.674c.097.216.146.47.146.763 0 .293-.049.547-.146.763a1.149 1.149 0 0 1-.418.501 1.13 1.13 0 0 1-.627.173c-.181 0-.346-.037-.496-.11a1 1 0 0 1-.376-.319h-.011v1.317h-.486v-3.71h.486v.377h.011c.101-.14.226-.246.376-.319.15-.073.315-.11.496-.11Zm-.93 1.437c0 .32.072.571.214.752a.738.738 0 0 0 .606.272c.258 0 .458-.089.601-.267.143-.18.214-.433.214-.757s-.071-.575-.214-.752c-.143-.181-.343-.272-.601-.272a.738.738 0 0 0-.606.272c-.142.18-.214.432-.214.752Zm3.494 1.437c-.299 0-.538-.077-.716-.23-.174-.153-.261-.36-.261-.622 0-.143.032-.27.094-.381.063-.112.15-.2.261-.267.091-.055.199-.099.324-.13.129-.032.296-.054.502-.068l.669-.052v-.173c0-.362-.209-.543-.627-.543-.349 0-.554.132-.617.397h-.486a.831.831 0 0 1 .345-.59c.199-.143.453-.215.763-.215.352 0 .62.075.804.225.189.15.283.378.283.684v1.238a5.276 5.276 0 0 0 .047.674h-.491a1.485 1.485 0 0 1-.027-.329v-.02h-.01a.895.895 0 0 1-.361.297c-.149.07-.315.105-.496.105Zm-.486-.836c0 .143.049.254.147.334a.656.656 0 0 0 .407.115c.237 0 .428-.068.575-.204a.691.691 0 0 0 .23-.522v-.293l-.622.058c-.132.014-.239.03-.319.047a.73.73 0 0 0-.198.073c-.147.08-.22.21-.22.392Zm2.492-1.985h.486v1.133h1.405v-1.133h.486v2.768h-.486v-1.217h-1.405v1.217h-.486v-2.768Z"/><path fill="#fff" d="M115.676 26.69h.507v1.577l1.557-1.577h.601l-1.635 1.645 1.745 1.907h-.653l-1.615-1.776v1.776h-.507V26.69Zm3.204 0h.497l.005 2.826 1.896-2.826h.554v3.552h-.496V27.39l-1.907 2.852h-.549V26.69Zm4.72.433h-1.196v-.433h2.899v.433h-1.196v3.12h-.507v-3.12Zm2.974-.433h.575l1.416 3.552h-.533l-.366-.95h-1.63l-.371.95h-.506l1.415-3.552Zm.935 2.189-.653-1.693-.658 1.693h1.311Zm1.626-2.19h.497l.005 2.827 1.896-2.826h.554v3.552h-.496V27.39l-1.907 2.852h-.549V26.69Zm1.479-.25c-.317 0-.563-.066-.737-.199-.174-.132-.27-.324-.287-.574h.454c.053.268.244.402.575.402.334 0 .528-.134.58-.402h.439c-.018.25-.113.442-.288.574-.174.133-.419.199-.736.199Zm3.878 3.855c-.327 0-.623-.073-.888-.219a1.575 1.575 0 0 1-.627-.637 2.053 2.053 0 0 1-.225-.988c0-.369.077-.69.23-.961.153-.275.361-.486.622-.632.265-.146.561-.22.888-.22.397 0 .731.101 1.003.303.275.202.453.488.533.857h-.517a1.005 1.005 0 0 0-.376-.548 1.052 1.052 0 0 0-.643-.194c-.244 0-.458.06-.643.178a1.175 1.175 0 0 0-.428.496 1.65 1.65 0 0 0-.151.727c0 .282.048.53.146.747.101.212.244.377.428.496.185.118.401.177.648.177.258 0 .474-.066.648-.198.178-.136.303-.33.376-.58h.517c-.08.383-.257.68-.533.888-.271.206-.607.308-1.008.308Zm2.158-3.604h.507v1.577l1.557-1.577h.601l-1.635 1.645 1.745 1.907h-.654l-1.614-1.776v1.776h-.507V26.69Zm3.204 0h.497l.005 2.826 1.896-2.826h.554v3.552h-.496V27.39l-1.907 2.852h-.549V26.69Zm3.842 0h.496l.006 2.826 1.896-2.826h.554v3.552h-.496V27.39l-1.907 2.852h-.549V26.69Zm1.479-.251c-.317 0-.563-.066-.737-.199-.174-.132-.27-.324-.287-.574h.454c.052.268.244.402.575.402.334 0 .527-.134.58-.402h.439c-.018.25-.114.442-.288.574-.174.133-.419.199-.736.199Zm4.924 3.855a1.8 1.8 0 0 1-.888-.219 1.575 1.575 0 0 1-.627-.637 2.053 2.053 0 0 1-.225-.988c0-.369.077-.69.23-.961.153-.275.36-.486.622-.632a1.8 1.8 0 0 1 .888-.22c.397 0 .731.101 1.003.303.275.202.453.488.533.857h-.517a1.006 1.006 0 0 0-.377-.548 1.05 1.05 0 0 0-.642-.194c-.244 0-.458.06-.643.178a1.175 1.175 0 0 0-.428.496 1.65 1.65 0 0 0-.152.727c0 .282.049.53.147.747.101.212.243.377.428.496.185.118.4.177.648.177.258 0 .473-.066.648-.198a1.09 1.09 0 0 0 .376-.58h.517c-.08.383-.258.68-.533.888-.272.206-.608.308-1.008.308Zm3.255-3.604h.575l1.416 3.552h-.533l-.366-.95h-1.63l-.371.95h-.507l1.416-3.552Zm.935 2.189-.653-1.693-.658 1.693h1.311Zm1.389.93h.313a1.38 1.38 0 0 0 .24-.523c.06-.22.101-.498.126-.836.028-.341.047-.794.057-1.358l.005-.402h2.404v3.119h.486v1.232h-.492v-.799h-2.648v.8h-.491v-1.233Zm2.638 0v-2.686h-1.426v.11c-.007.738-.039 1.306-.094 1.703-.056.394-.147.684-.272.873h1.792ZM54.036 82.076h1.666c.366 0 .638.08.815.24.181.16.272.385.272.675 0 .38-.162.637-.486.773v.01a.845.845 0 0 1 .47.319c.105.15.157.33.157.538 0 .324-.097.571-.292.742-.195.17-.476.256-.841.256h-1.761v-3.553Zm1.719 3.135c.449 0 .674-.202.674-.606 0-.202-.056-.35-.168-.444-.111-.094-.28-.141-.506-.141h-1.212v1.191h1.212Zm-.126-1.604c.44 0 .659-.188.659-.564 0-.188-.056-.326-.168-.413-.108-.09-.271-.136-.49-.136h-1.087v1.113h1.086Zm3.131-1.53h.575l1.416 3.552h-.533l-.366-.95h-1.63l-.37.95h-.507l1.415-3.553Zm.936 2.188-.654-1.692-.658 1.692h1.312Zm1.625-2.189h1.662c.383 0 .672.086.867.256.195.171.292.424.292.758 0 .303-.083.543-.25.72-.167.175-.41.281-.726.32l1.06 1.499h-.622L62.57 84.14h-.742v1.489h-.507v-3.553Zm1.62 1.63c.237 0 .413-.048.528-.146.114-.097.172-.249.172-.454 0-.203-.057-.352-.172-.45-.115-.097-.291-.146-.528-.146h-1.113v1.196h1.113Zm2.769 1.484 1.227-1.123c.206-.188.354-.355.445-.502a.863.863 0 0 0 .14-.465c0-.205-.059-.364-.177-.475-.115-.115-.277-.172-.486-.172-.202 0-.36.055-.475.167-.115.108-.176.26-.183.46h-.502c.01-.328.12-.586.33-.774.208-.188.489-.282.84-.282.352 0 .633.096.842.287.212.188.318.441.318.758 0 .24-.059.458-.177.653-.115.195-.32.422-.617.68l-.898.788h1.734v.439H65.71v-.439Zm2.686-.747 1.74-2.367h.59v2.351h.523v.429h-.523v.773h-.491v-.773h-1.839v-.413Zm1.839-.016V82.62l-1.327 1.807h1.327ZM29.503 140.975h1.609c.383 0 .672.085.867.256.195.17.293.423.293.757 0 .338-.105.598-.314.779-.205.181-.503.271-.893.271h-1.056v1.489h-.506v-3.552Zm1.567 1.63c.237 0 .413-.049.528-.146.115-.098.172-.25.172-.455 0-.202-.057-.352-.172-.449-.115-.098-.291-.147-.528-.147h-1.06v1.197h1.06Zm2.856 1.975c-.262 0-.493-.056-.695-.168a1.192 1.192 0 0 1-.465-.491 1.699 1.699 0 0 1-.162-.768c0-.292.056-.546.167-.762.112-.22.265-.389.46-.507.198-.119.425-.178.679-.178.422 0 .74.131.956.392.22.258.33.618.33 1.081v.053h-2.122c.004.275.08.501.23.679.153.177.364.266.632.266a.805.805 0 0 0 .47-.13.665.665 0 0 0 .267-.366h.49c-.069.279-.212.498-.427.658-.216.16-.486.241-.81.241Zm.778-1.735c-.024-.244-.11-.43-.256-.559a.772.772 0 0 0-.538-.193.781.781 0 0 0-.554.204.865.865 0 0 0-.266.548h1.614Zm2.243 1.735a1.44 1.44 0 0 1-.7-.168 1.206 1.206 0 0 1-.48-.491 1.634 1.634 0 0 1-.173-.778c0-.303.057-.563.172-.779.119-.215.279-.379.48-.491a1.45 1.45 0 0 1 .7-.167c.314 0 .577.079.79.235.212.154.35.378.412.674h-.496a.64.64 0 0 0-.256-.376.763.763 0 0 0-.444-.125.829.829 0 0 0-.632.261c-.16.171-.24.427-.24.768s.08.599.24.773a.836.836 0 0 0 .632.256.706.706 0 0 0 .444-.141.785.785 0 0 0 .267-.418h.496a1.2 1.2 0 0 1-.423.716 1.251 1.251 0 0 1-.79.251Zm2.536-2.404h-1.008v-.418h2.486v.418h-1.008v2.351h-.47v-2.351Zm3.117 2.404c-.275 0-.516-.058-.721-.173a1.208 1.208 0 0 1-.47-.501 1.666 1.666 0 0 1-.167-.763c0-.289.055-.542.167-.758.111-.219.268-.386.47-.501.205-.119.446-.178.72-.178.276 0 .515.059.717.178.205.115.363.282.475.501.111.216.167.469.167.758 0 .289-.056.543-.167.763-.111.216-.27.383-.475.501-.203.115-.441.173-.716.173Zm-.873-1.437c0 .32.077.571.23.752.154.181.368.274.643.277.275-.003.49-.096.642-.277.154-.181.23-.432.23-.752 0-.321-.076-.571-.23-.752-.153-.182-.367-.274-.642-.277-.275.003-.49.095-.643.277-.153.181-.23.431-.23.752Zm4.131-1.437a1.11 1.11 0 0 1 1.045.674c.098.216.146.47.146.763 0 .292-.048.547-.146.763a1.14 1.14 0 0 1-.418.501 1.128 1.128 0 0 1-.627.173c-.18 0-.346-.037-.496-.11a.997.997 0 0 1-.376-.319h-.01v1.317h-.486v-3.71h.485v.377h.01a.997.997 0 0 1 .377-.319c.15-.073.315-.11.496-.11Zm-.93 1.437c0 .32.072.571.215.752.146.181.348.272.605.272.258 0 .459-.089.601-.267.143-.181.215-.433.215-.757s-.072-.575-.215-.752c-.142-.182-.343-.272-.6-.272-.258 0-.46.09-.607.272-.142.181-.214.431-.214.752Zm3.494 1.437c-.3 0-.538-.077-.715-.23-.175-.154-.262-.361-.262-.622 0-.143.032-.27.094-.381a.707.707 0 0 1 .262-.267c.09-.056.198-.099.323-.13.13-.032.297-.054.502-.068l.669-.053v-.172c0-.362-.21-.543-.627-.543-.348 0-.554.132-.617.397h-.486a.832.832 0 0 1 .345-.591c.199-.142.453-.214.763-.214.352 0 .62.075.805.225.188.15.282.378.282.684v1.238a5.086 5.086 0 0 0 .047.674h-.491a1.534 1.534 0 0 1-.026-.329v-.021h-.01a.893.893 0 0 1-.361.298c-.15.07-.316.105-.497.105Zm-.485-.836c0 .142.048.254.146.334a.656.656 0 0 0 .407.115c.237 0 .429-.068.575-.204a.69.69 0 0 0 .23-.522v-.293l-.622.058a2.945 2.945 0 0 0-.319.047.734.734 0 0 0-.198.073c-.146.08-.22.211-.22.392Zm2.491-1.986h.486v1.134h1.405v-1.134h.486v2.769h-.486v-1.217h-1.405v1.217h-.486v-2.769Zm4.202-.783h1.66c.384 0 .673.085.868.256.195.17.293.423.293.757 0 .303-.084.544-.251.721-.167.174-.41.281-.726.319l1.06 1.499h-.621l-1.035-1.489h-.742v1.489h-.507v-3.552Zm1.619 1.63c.237 0 .413-.049.528-.146.115-.098.172-.25.172-.455 0-.202-.057-.352-.172-.449-.115-.098-.291-.147-.528-.147h-1.113v1.197h1.113Zm1.911-1.63h2.476v.433h-1.97v1.098h1.871v.433h-1.87v1.588h-.507v-3.552Zm3.184 0h1.66c.384 0 .673.085.868.256.195.17.293.423.293.757 0 .303-.084.544-.251.721-.167.174-.41.281-.726.319l1.06 1.499h-.621l-1.035-1.489h-.742v1.489h-.506v-3.552Zm1.62 1.63c.236 0 .412-.049.527-.146.115-.098.172-.25.172-.455 0-.202-.057-.352-.172-.449-.115-.098-.291-.147-.528-.147H61.85v1.197h1.113Zm2.956-1.63h2.356v.444h-1.85v3.108h-.506v-3.552Zm3.01 0h1.61c.382 0 .671.085.866.256.195.17.293.423.293.757 0 .338-.105.598-.314.779-.205.181-.503.271-.893.271h-1.055v1.489h-.507v-3.552Zm1.567 1.63c.237 0 .413-.049.528-.146.115-.098.172-.25.172-.455 0-.202-.057-.352-.172-.449-.115-.098-.29-.147-.528-.147h-1.06v1.197h1.06Zm1.882-1.63h.496l.005 2.826 1.897-2.826h.554v3.552h-.497v-2.852l-1.907 2.852h-.548v-3.552Zm3.47 3.119h.063c.088 0 .16-.009.22-.026a.36.36 0 0 0 .157-.115.753.753 0 0 0 .146-.34c.035-.15.06-.385.073-.705.017-.321.03-.801.037-1.442l.005-.491h2.408v3.552h-.507v-3.119h-1.426v.162c-.007.627-.02 1.11-.041 1.448-.021.337-.054.599-.1.783a1.156 1.156 0 0 1-.188.444.636.636 0 0 1-.287.225 1.243 1.243 0 0 1-.408.057h-.151v-.433Zm4-3.119h.506v1.457h1.087c.386 0 .679.087.877.262.199.174.298.43.298.768 0 .341-.106.604-.319.788-.209.185-.51.277-.903.277h-1.547v-3.552Zm1.55 3.119c.245 0 .424-.051.539-.152.118-.101.177-.256.177-.465 0-.209-.059-.362-.177-.459-.115-.101-.294-.152-.538-.152h-1.045v1.228H81.4Z"/><path stroke="#fff" stroke-width=".182" d="m94.133 119.461-8.096 27.611H27.545"/><path fill="#fff" d="M43.895 154.787h2.612v.444h-2.115v1.014h1.185c.387 0 .68.087.878.261.199.174.298.43.298.768 0 .341-.106.604-.319.789-.209.185-.51.277-.903.277h-1.636v-3.553Zm1.64 3.119c.245 0 .424-.05.539-.151.118-.101.177-.256.177-.465 0-.209-.059-.362-.177-.46-.115-.101-.294-.151-.538-.151h-1.144v1.227h1.144Zm2.658.486c-.3 0-.538-.077-.716-.23-.174-.153-.261-.36-.261-.621 0-.143.031-.27.094-.382a.71.71 0 0 1 .261-.266c.09-.056.199-.1.324-.131.129-.031.296-.054.502-.068l.668-.052v-.172c0-.363-.209-.544-.627-.544-.348 0-.553.133-.616.397h-.486a.829.829 0 0 1 .345-.59c.198-.143.453-.214.763-.214.351 0 .62.075.804.224.188.15.282.378.282.685v1.238a5.037 5.037 0 0 0 .047.674h-.49a1.534 1.534 0 0 1-.027-.329v-.021h-.01a.91.91 0 0 1-.36.298c-.15.069-.316.104-.497.104Zm-.486-.836c0 .143.049.254.146.335a.662.662 0 0 0 .408.114c.237 0 .428-.067.575-.203a.69.69 0 0 0 .23-.523v-.292l-.622.057c-.133.014-.239.03-.319.047a.77.77 0 0 0-.199.073c-.146.08-.219.211-.219.392Zm2.492-1.985h.486v1.134h1.405v-1.134h.486v2.769h-.486v-1.217h-1.406v1.217H50.2v-2.769Zm3.531 1.39v1.379h-.486v-2.769h.486v1.259l1.239-1.259h.616l-1.322 1.311 1.343 1.458h-.622l-1.254-1.379Zm3.226 1.431a1.42 1.42 0 0 1-.695-.167 1.197 1.197 0 0 1-.465-.491 1.699 1.699 0 0 1-.162-.768c0-.293.056-.547.167-.763.112-.219.265-.388.46-.507.198-.118.425-.177.68-.177.42 0 .74.13.955.392.22.257.33.618.33 1.081v.052h-2.122c.004.275.08.502.23.679.153.178.364.267.632.267a.805.805 0 0 0 .47-.131.666.666 0 0 0 .267-.365h.491c-.07.278-.213.498-.428.658-.216.16-.486.24-.81.24Zm.778-1.734c-.024-.244-.11-.431-.256-.559a.773.773 0 0 0-.538-.194.781.781 0 0 0-.554.204.865.865 0 0 0-.266.549h1.614Zm1.78-.669h-1.01v-.418h2.488v.418h-1.009v2.351h-.47v-2.351Zm1.944-.418h.486v1.134h1.406v-1.134h.486v2.769h-.486v-1.217h-1.406v1.217h-.486v-2.769Zm3.046 0h.486v1.04h.753c.32 0 .562.071.726.214.163.143.245.355.245.637 0 .282-.087.5-.261.653-.17.15-.42.225-.747.225h-1.202v-2.769Zm1.186 2.351c.181 0 .316-.035.403-.105.087-.073.13-.188.13-.344 0-.157-.043-.27-.13-.34-.088-.07-.222-.104-.403-.104h-.7v.893h.7Zm1.421-2.351h.486v2.769h-.486v-2.769Zm1.153 0h.486v2.137l1.385-2.137h.533v2.769h-.486v-2.121l-1.385 2.121h-.533v-2.769Zm.685-.92c.045.241.218.361.517.361.303 0 .477-.12.523-.361h.396c-.017.227-.104.399-.26.518-.157.118-.379.177-.664.177-.282 0-.502-.059-.659-.177-.156-.119-.243-.291-.26-.518h.407Zm4.545 3.741c-.351 0-.639-.077-.862-.23a.962.962 0 0 1-.402-.658h.496a.63.63 0 0 0 .272.36.958.958 0 0 0 .507.121c.205 0 .37-.04.491-.121a.384.384 0 0 0 .188-.334c0-.139-.049-.244-.146-.313-.094-.07-.248-.105-.46-.105h-.434v-.402h.434c.188 0 .324-.031.407-.094.088-.066.131-.164.131-.293a.344.344 0 0 0-.167-.303c-.111-.073-.266-.109-.465-.109a.842.842 0 0 0-.47.12.522.522 0 0 0-.235.339h-.502a.967.967 0 0 1 .402-.627c.213-.149.486-.224.82-.224.342 0 .608.068.8.203a.649.649 0 0 1 .292.57c0 .299-.142.496-.428.59v.011a.615.615 0 0 1 .366.235.68.68 0 0 1 .13.423.716.716 0 0 1-.323.622c-.213.146-.493.219-.842.219Zm2.565 0c-.3 0-.538-.077-.715-.23-.174-.153-.261-.36-.261-.621 0-.143.03-.27.094-.382.062-.111.15-.2.26-.266.091-.056.2-.1.325-.131.129-.031.296-.054.501-.068l.669-.052v-.172c0-.363-.21-.544-.627-.544-.348 0-.554.133-.617.397h-.485a.83.83 0 0 1 .344-.59c.199-.143.453-.214.763-.214.352 0 .62.075.805.224.188.15.282.378.282.685v1.238a5.086 5.086 0 0 0 .047.674h-.491a1.534 1.534 0 0 1-.026-.329v-.021h-.01a.91.91 0 0 1-.361.298c-.15.069-.316.104-.497.104Zm-.485-.836c0 .143.048.254.146.335a.662.662 0 0 0 .407.114c.237 0 .429-.067.575-.203a.69.69 0 0 0 .23-.523v-.292l-.622.057a3.22 3.22 0 0 0-.319.047.77.77 0 0 0-.198.073c-.146.08-.22.211-.22.392Zm2.23.366h.057c.143 0 .248-.035.314-.105a.493.493 0 0 0 .12-.25c.028-.112.047-.286.058-.523.013-.237.024-.601.03-1.092l.006-.381h2.069v2.769h-.48v-2.351h-1.134l-.006.313c-.003.397-.014.709-.031.936-.014.226-.04.409-.078.548a.836.836 0 0 1-.168.334.576.576 0 0 1-.25.173 1.13 1.13 0 0 1-.35.047h-.157v-.418ZM43.895 160.299h.507v1.578l1.557-1.578h.6l-1.635 1.646 1.745 1.907h-.653l-1.614-1.777v1.777h-.507v-3.553Zm4.443 3.605c-.337 0-.637-.077-.898-.23a1.638 1.638 0 0 1-.611-.648 2.055 2.055 0 0 1-.215-.951c0-.358.072-.675.215-.951a1.59 1.59 0 0 1 .61-.647c.262-.154.562-.23.9-.23.337 0 .637.076.898.23.261.153.463.369.606.647a2 2 0 0 1 .22.951c0 .356-.074.672-.22.951a1.602 1.602 0 0 1-.606.648c-.261.153-.56.23-.899.23Zm-1.206-1.829c0 .279.05.524.151.737.101.212.242.378.423.496.185.119.396.178.632.178.237 0 .446-.059.627-.178.185-.118.328-.284.429-.496a1.7 1.7 0 0 0 .151-.737c0-.278-.05-.524-.151-.736a1.102 1.102 0 0 0-.423-.497 1.132 1.132 0 0 0-.633-.177c-.24 0-.452.059-.637.177a1.145 1.145 0 0 0-.423.497 1.747 1.747 0 0 0-.146.736Zm3.595-1.776h.506v1.531h1.892v-1.531h.506v3.553h-.506v-1.589h-1.892v1.589h-.506v-3.553Zm4.668.434H54.2v-.434h2.9v.434h-1.197v3.119h-.507v-3.119Zm2.27-.434h.497l.005 2.826 1.896-2.826h.554v3.553h-.496v-2.853l-1.907 2.853h-.549v-3.553Zm3.842 0h.507v1.531h1.891v-1.531h.507v3.553h-.507v-1.589h-1.891v1.589h-.507v-3.553Zm3.79 0h2.477v.434h-1.97v1.097h1.87v.433h-1.87v1.155h1.986v.434h-2.492v-3.553Zm3.25 0h.507v1.531h1.892v-1.531h.506v3.553h-.506v-1.589h-1.892v1.589h-.506v-3.553Zm4.669.434H72.02v-.434h2.9v.434h-1.197v3.119h-.507v-3.119Zm2.974-.434h.575l1.416 3.553h-.533l-.366-.951h-1.63l-.37.951h-.507l1.415-3.553Zm.936 2.189-.653-1.693-.659 1.693h1.312Zm1.356.93h.063c.087 0 .16-.009.22-.026a.351.351 0 0 0 .156-.115.753.753 0 0 0 .147-.34c.035-.149.059-.385.073-.705.017-.32.03-.801.036-1.442l.006-.491h2.408v3.553h-.507v-3.119h-1.426v.162c-.007.627-.02 1.109-.042 1.447-.02.338-.054.599-.1.783a1.156 1.156 0 0 1-.187.444.635.635 0 0 1-.287.225 1.24 1.24 0 0 1-.408.058h-.151v-.434Zm3.999-3.119h.507v1.458h1.086c.387 0 .68.087.878.261.198.174.298.43.298.768 0 .341-.106.604-.319.789-.209.184-.51.277-.904.277h-1.546v-3.553Zm1.552 3.119c.243 0 .423-.051.538-.152.118-.101.177-.256.177-.465 0-.209-.059-.362-.177-.459-.115-.101-.295-.152-.538-.152h-1.045v1.228h1.044Z"/><path stroke="#fff" stroke-width=".182" d="m106.383 124.35-11.397 42.349h-53.05"/><path fill="#fff" d="M55.065 180.611c-.328 0-.624-.073-.889-.22a1.574 1.574 0 0 1-.627-.637 2.058 2.058 0 0 1-.224-.987c0-.37.076-.69.23-.962.153-.275.36-.485.621-.632.265-.146.561-.219.889-.219.397 0 .731.101 1.003.303.275.202.452.487.533.857h-.518a1 1 0 0 0-.376-.549 1.05 1.05 0 0 0-.642-.193c-.244 0-.458.059-.643.177a1.174 1.174 0 0 0-.428.497 1.65 1.65 0 0 0-.152.726c0 .282.049.531.146.747.101.212.244.378.429.496.184.119.4.178.648.178.257 0 .473-.066.647-.199.178-.135.303-.329.377-.58h.517c-.08.384-.258.68-.533.889-.272.205-.608.308-1.008.308Zm2.853-2.403h-1.009v-.418h2.487v.418h-1.008v2.351h-.47v-2.351Zm3.117 2.403c-.276 0-.516-.058-.721-.173a1.208 1.208 0 0 1-.47-.501 1.666 1.666 0 0 1-.168-.763c0-.289.056-.541.167-.757a1.17 1.17 0 0 1 .47-.502c.206-.118.446-.178.722-.178.275 0 .513.06.715.178.206.115.364.282.476.502.111.216.167.468.167.757s-.056.543-.167.763c-.112.216-.27.383-.476.501-.202.115-.44.173-.715.173Zm-.873-1.437c0 .321.077.571.23.752.153.182.367.274.643.277.275-.003.489-.095.642-.277.153-.181.23-.431.23-.752 0-.32-.077-.571-.23-.752-.153-.181-.367-.274-.642-.277-.276.003-.49.096-.643.277-.153.181-.23.432-.23.752Zm2.425.967h.057c.143 0 .247-.035.313-.105a.497.497 0 0 0 .12-.251c.029-.111.048-.285.058-.522.014-.237.024-.601.031-1.092l.006-.381h2.069v2.769h-.481v-2.351h-1.134l-.005.313a14.6 14.6 0 0 1-.031.935c-.014.227-.04.409-.079.549a.833.833 0 0 1-.167.334.575.575 0 0 1-.25.173 1.13 1.13 0 0 1-.35.047h-.157v-.418Zm4.544.47c-.275 0-.515-.058-.72-.173a1.208 1.208 0 0 1-.47-.501 1.666 1.666 0 0 1-.168-.763c0-.289.056-.541.167-.757a1.17 1.17 0 0 1 .47-.502c.206-.118.446-.178.721-.178.275 0 .514.06.716.178.206.115.364.282.476.502.111.216.167.468.167.757s-.056.543-.167.763c-.112.216-.27.383-.476.501-.202.115-.44.173-.716.173Zm-.872-1.437c0 .321.076.571.23.752.153.182.367.274.642.277.275-.003.49-.095.643-.277.153-.181.23-.431.23-.752 0-.32-.077-.571-.23-.752-.153-.181-.368-.274-.643-.277-.275.003-.489.096-.642.277-.154.181-.23.432-.23.752Zm2.762-1.384h1.51c.275 0 .482.062.621.188.14.125.21.298.21.517 0 .3-.131.502-.392.606v.01a.61.61 0 0 1 .365.236.698.698 0 0 1 .126.423c0 .254-.079.449-.235.585-.154.136-.373.204-.659.204h-1.546v-2.769Zm1.505 2.372c.303 0 .454-.143.454-.429 0-.143-.038-.245-.115-.308-.073-.063-.188-.094-.345-.094h-1.013v.831h1.019Zm-.073-1.218c.292 0 .438-.134.438-.402 0-.122-.036-.211-.11-.266-.073-.06-.182-.089-.329-.089h-.945v.757h.945Zm2.409 1.667c-.3 0-.538-.077-.716-.23-.174-.153-.26-.361-.26-.622 0-.143.03-.27.093-.381.063-.112.15-.2.261-.267.09-.055.199-.099.324-.13.13-.032.296-.054.502-.068l.668-.052v-.173c0-.362-.209-.543-.626-.543-.349 0-.554.132-.617.397h-.486a.829.829 0 0 1 .345-.59c.199-.143.453-.215.763-.215.352 0 .62.075.804.225.188.15.282.378.282.684v1.239a5.012 5.012 0 0 0 .047.674h-.49a1.544 1.544 0 0 1-.027-.33v-.02h-.01a.899.899 0 0 1-.36.297c-.15.07-.316.105-.497.105Zm-.486-.836c0 .143.049.254.146.334a.656.656 0 0 0 .408.115c.237 0 .428-.068.575-.204a.687.687 0 0 0 .23-.522v-.293l-.622.058c-.132.014-.239.03-.319.047a.734.734 0 0 0-.198.073c-.147.08-.22.211-.22.392Zm3.066-.293a.823.823 0 0 1-.49-.287c-.112-.143-.168-.327-.168-.554 0-.282.082-.494.246-.637.163-.143.406-.214.726-.214h1.343v2.769h-.486v-1.04h-.632l-.716 1.04h-.575l.752-1.077Zm-.167-.83c0 .156.044.271.13.345.088.069.222.104.403.104h.805v-.893h-.805c-.18 0-.315.034-.402.104-.087.07-.13.183-.13.34Zm3.646-1.646h.507v3.119h1.771v-3.119h.507v3.119h.486v1.233H81.7v-.799h-2.78v-3.553Zm3.873 0h.71l1.186 2.894 1.17-2.894h.716v3.553h-.496v-2.916l-1.202 2.916h-.392l-1.207-2.884v2.884h-.485v-3.553Zm5.546.434h-1.197v-.434h2.9v.434h-1.197v3.119h-.507v-3.119ZM53.55 185.59h1.666c.366 0 .637.08.815.24.181.161.272.385.272.674 0 .38-.162.638-.486.773v.011a.846.846 0 0 1 .47.319.914.914 0 0 1 .157.538c0 .324-.098.571-.293.742-.195.17-.475.256-.84.256H53.55v-3.553Zm1.718 3.135c.45 0 .674-.202.674-.606 0-.202-.055-.35-.167-.444-.111-.094-.28-.142-.507-.142h-1.212v1.192h1.212Zm-.125-1.604c.439 0 .658-.188.658-.564 0-.189-.056-.326-.167-.413-.108-.091-.272-.136-.491-.136h-1.087v1.113h1.087Zm3.434 2.074c-.45 0-.804-.119-1.066-.355-.257-.237-.386-.573-.386-1.009v-2.241h.507v2.241c0 .303.083.535.25.695.167.157.4.235.695.235.3 0 .531-.078.695-.235.167-.16.25-.392.25-.695v-2.241h.508v2.241c0 .439-.131.777-.392 1.014-.258.233-.612.35-1.06.35Zm2.289-3.605h.506v3.119h1.933v.434h-2.44v-3.553Zm3.091 0h.507v1.578l1.557-1.578h.6l-1.634 1.646 1.745 1.907h-.653l-1.615-1.777v1.777h-.507v-3.553Zm4.301 0h.575l1.416 3.553h-.533l-.366-.951h-1.63l-.37.951h-.507l1.415-3.553Zm.936 2.189-.653-1.693-.659 1.693h1.312Zm2.945-.016v1.38h-.485v-2.769h.486v1.259l1.238-1.259h.616l-1.322 1.311 1.343 1.458h-.622l-1.254-1.38Zm3.263 1.432c-.276 0-.516-.058-.721-.173a1.207 1.207 0 0 1-.47-.501 1.665 1.665 0 0 1-.168-.763c0-.289.056-.541.167-.757a1.17 1.17 0 0 1 .47-.502c.206-.118.446-.178.721-.178.276 0 .514.06.716.178.206.115.364.282.476.502.111.216.167.468.167.757s-.056.543-.167.763c-.112.216-.27.383-.476.501-.202.115-.44.173-.716.173Zm-.873-1.437c0 .321.077.571.23.752.153.182.367.274.642.277.276-.003.49-.095.643-.277.153-.181.23-.431.23-.752 0-.32-.077-.571-.23-.752-.153-.181-.367-.274-.642-.277-.276.003-.49.096-.643.277-.153.181-.23.432-.23.752Zm4.079 1.447a1.676 1.676 0 0 1-.768-.198 1.275 1.275 0 0 1-.507-.502 1.517 1.517 0 0 1-.178-.742c0-.278.06-.524.178-.736.118-.213.287-.38.507-.502.22-.125.475-.193.768-.204v-.731h.47v.731c.46.018.817.155 1.07.413.255.258.382.601.382 1.029 0 .436-.129.781-.386 1.035-.255.254-.61.39-1.066.407v.878h-.47v-.878Zm-.962-1.442c0 .324.08.577.24.758.161.181.401.277.722.287v-2.09c-.324.011-.566.108-.727.293-.156.181-.235.432-.235.752Zm1.432 1.045c.324-.01.564-.106.72-.287.161-.185.241-.437.241-.758 0-.324-.08-.576-.24-.757-.16-.181-.4-.277-.721-.288v2.09Zm3.17.387a1.42 1.42 0 0 1-.695-.167 1.197 1.197 0 0 1-.465-.491 1.699 1.699 0 0 1-.162-.768c0-.293.055-.547.167-.763.111-.22.264-.389.46-.507.198-.118.425-.178.679-.178.421 0 .74.131.956.392.22.258.329.618.329 1.082v.052h-2.121c.003.275.08.501.23.679.153.178.364.267.632.267a.805.805 0 0 0 .47-.131.665.665 0 0 0 .267-.366h.49c-.07.279-.212.498-.428.659-.216.16-.486.24-.81.24Zm.778-1.735c-.025-.243-.11-.43-.256-.559a.772.772 0 0 0-.538-.193.781.781 0 0 0-.554.204.865.865 0 0 0-.266.548h1.614Z"/><path stroke="#fff" stroke-width=".182" d="m116.73 138.357-12.094 44.929H51.588M230.768 93.19l6.306-23.434h35.445"/><path fill="#fff" d="M229.375 182.255a1.81 1.81 0 0 1-.888-.219 1.577 1.577 0 0 1-.627-.637 2.056 2.056 0 0 1-.225-.988c0-.369.077-.689.23-.961.154-.275.361-.486.622-.632a1.8 1.8 0 0 1 .888-.22c.397 0 .732.101 1.003.303.275.202.453.488.533.857h-.517a1.003 1.003 0 0 0-.376-.548 1.051 1.051 0 0 0-.643-.194c-.244 0-.458.059-.642.178a1.17 1.17 0 0 0-.429.496 1.65 1.65 0 0 0-.151.726c0 .283.048.532.146.747.101.213.244.378.428.497.185.118.401.177.648.177.258 0 .474-.066.648-.198.178-.136.303-.329.376-.58h.517c-.08.383-.257.679-.533.888-.271.206-.607.308-1.008.308Zm2.853-2.403h-1.008v-.418h2.487v.418h-1.009v2.351h-.47v-2.351Zm3.081 2.403c-.262 0-.493-.055-.695-.167a1.186 1.186 0 0 1-.465-.491 1.699 1.699 0 0 1-.162-.768c0-.292.056-.547.167-.763.111-.219.265-.388.46-.506.198-.119.425-.178.679-.178.421 0 .74.131.956.392.219.258.329.618.329 1.081v.052h-2.121c.003.276.08.502.23.68.153.177.364.266.632.266a.797.797 0 0 0 .47-.131.663.663 0 0 0 .267-.365h.491c-.07.278-.213.498-.429.658-.216.16-.486.24-.809.24Zm.778-1.734c-.024-.244-.11-.43-.256-.559a.772.772 0 0 0-.538-.193.78.78 0 0 0-.554.203.869.869 0 0 0-.266.549h1.614Zm1.025-1.087h.486v2.137l1.385-2.137h.533v2.769h-.486v-2.121l-1.385 2.121h-.533v-2.769Zm.685-.919c.045.24.217.36.517.36.303 0 .477-.12.522-.36h.397c-.017.226-.104.399-.261.517-.157.118-.378.178-.663.178-.282 0-.502-.06-.659-.178-.156-.118-.243-.291-.261-.517h.408Zm2.873 2.309v1.379h-.486v-2.769h.486v1.259l1.238-1.259h.616l-1.322 1.312 1.343 1.457h-.622l-1.253-1.379Zm3.304 1.437c-.234 0-.443-.042-.627-.126a1.04 1.04 0 0 1-.429-.35.916.916 0 0 1-.151-.517c0-.209.066-.395.198-.559.133-.167.335-.324.606-.47a2.18 2.18 0 0 1-.355-.46.848.848 0 0 1-.104-.402c0-.234.088-.422.266-.564.178-.143.406-.215.684-.215.272 0 .495.072.669.215a.662.662 0 0 1 .267.548.775.775 0 0 1-.183.502c-.119.149-.314.297-.585.444l.825.856c.112-.215.183-.487.214-.815h.444c-.045.443-.165.822-.36 1.139l.679.716h-.585l-.371-.381a1.43 1.43 0 0 1-.481.329 1.6 1.6 0 0 1-.621.11Zm-.7-.998c0 .191.064.343.193.454.132.108.317.162.554.162.32 0 .585-.115.794-.345l-.977-1.024a1.317 1.317 0 0 0-.429.335.67.67 0 0 0-.135.418Zm.303-1.891c0 .108.029.212.088.313.06.098.161.219.303.366.206-.112.354-.221.444-.329a.549.549 0 0 0 .136-.35.392.392 0 0 0-.13-.309.497.497 0 0 0-.35-.12.518.518 0 0 0-.356.12.395.395 0 0 0-.135.309Zm2.9-.721h2.612v.444h-2.116v1.013h1.186c.387 0 .679.087.878.261.198.175.298.431.298.768 0 .342-.107.605-.319.789-.209.185-.51.277-.904.277h-1.635v-3.552Zm1.64 3.119c.244 0 .424-.051.538-.152.119-.101.178-.256.178-.465 0-.209-.059-.362-.178-.46-.114-.101-.294-.151-.538-.151h-1.144v1.228h1.144Zm1.944-2.336.857 2.168.794-2.168h.502l-1.411 3.71h-.501l.365-.941-1.118-2.769h.512Zm3.909-.052c.241 0 .45.059.627.178.182.115.321.28.418.496.098.216.147.47.147.763 0 .292-.049.546-.147.762a1.134 1.134 0 0 1-.418.502 1.125 1.125 0 0 1-.627.172c-.181 0-.346-.036-.496-.109a1.003 1.003 0 0 1-.376-.319h-.01v1.317h-.486v-3.71h.486v.376h.01a1 1 0 0 1 .376-.318c.15-.073.315-.11.496-.11Zm-.929 1.437c0 .32.071.571.214.752.146.181.348.272.606.272s.458-.089.601-.267c.142-.181.214-.433.214-.757s-.072-.575-.214-.753c-.143-.181-.343-.271-.601-.271-.258 0-.46.09-.606.271-.143.181-.214.432-.214.753Zm2.652-1.385h1.798v.418h-1.312v2.351h-.486v-2.769Zm3.416 2.821a1.41 1.41 0 0 1-.695-.167 1.198 1.198 0 0 1-.465-.491 1.699 1.699 0 0 1-.162-.768c0-.292.056-.547.167-.763.112-.219.265-.388.46-.506.199-.119.425-.178.679-.178.422 0 .74.131.956.392.22.258.329.618.329 1.081v.052h-2.121c.004.276.08.502.23.68.153.177.364.266.632.266a.802.802 0 0 0 .471-.131.667.667 0 0 0 .266-.365h.491c-.07.278-.212.498-.428.658-.216.16-.486.24-.81.24Zm.778-1.734c-.024-.244-.109-.43-.256-.559a.77.77 0 0 0-.538-.193.782.782 0 0 0-.554.203.869.869 0 0 0-.266.549h1.614Zm2.394-1.139a1.108 1.108 0 0 1 1.045.674c.098.216.147.47.147.763 0 .292-.049.546-.147.762a1.14 1.14 0 0 1-.418.502 1.125 1.125 0 0 1-.627.172c-.181 0-.346-.036-.496-.109a1.003 1.003 0 0 1-.376-.319h-.01v1.317h-.486v-3.71h.486v.376h.01a1 1 0 0 1 .376-.318c.15-.073.315-.11.496-.11Zm-.929 1.437c0 .32.071.571.214.752.146.181.348.272.606.272.257 0 .458-.089.601-.267.142-.181.214-.433.214-.757s-.072-.575-.214-.753c-.143-.181-.344-.271-.601-.271-.258 0-.46.09-.606.271-.143.181-.214.432-.214.753Z"/><path stroke="#fff" stroke-width=".182" d="m212.361 148.984 9.675 35.946h42.886"/><path fill="#fff" d="M279.29 149.555h1.609c.383 0 .672.085.867.256.195.171.293.423.293.757 0 .338-.105.598-.314.779-.205.181-.503.271-.893.271h-1.055v1.489h-.507v-3.552Zm1.567 1.63c.237 0 .413-.049.528-.146.115-.098.172-.249.172-.455 0-.202-.057-.352-.172-.449-.115-.098-.291-.147-.528-.147h-1.06v1.197h1.06Zm2.856 1.975a1.41 1.41 0 0 1-.695-.168 1.18 1.18 0 0 1-.465-.491 1.699 1.699 0 0 1-.162-.768c0-.292.056-.546.167-.762.112-.22.265-.389.46-.507.199-.119.425-.178.679-.178.422 0 .74.131.956.392.22.258.329.618.329 1.082v.052h-2.121c.004.275.08.501.23.679.153.178.364.266.632.266a.804.804 0 0 0 .47-.13.666.666 0 0 0 .267-.366h.491c-.07.279-.212.498-.428.658-.216.161-.486.241-.81.241Zm.778-1.735c-.024-.244-.109-.43-.256-.559a.772.772 0 0 0-.538-.193.783.783 0 0 0-.554.204.864.864 0 0 0-.266.548h1.614Zm2.243 1.735c-.261 0-.495-.056-.7-.168a1.21 1.21 0 0 1-.481-.491 1.634 1.634 0 0 1-.172-.778c0-.303.057-.563.172-.778a1.22 1.22 0 0 1 .481-.492c.205-.111.439-.167.7-.167.313 0 .576.079.789.235.212.154.35.378.412.674h-.496a.64.64 0 0 0-.256-.376.77.77 0 0 0-.444-.125.829.829 0 0 0-.632.261c-.16.171-.24.427-.24.768s.08.599.24.773a.836.836 0 0 0 .632.256.706.706 0 0 0 .444-.141.787.787 0 0 0 .267-.418h.496a1.198 1.198 0 0 1-.423.716 1.252 1.252 0 0 1-.789.251Zm2.536-2.404h-1.008v-.417h2.487v.417h-1.009v2.351h-.47v-2.351Zm3.117 2.404c-.275 0-.516-.058-.721-.173a1.204 1.204 0 0 1-.47-.501 1.658 1.658 0 0 1-.167-.763c0-.289.055-.542.167-.758a1.17 1.17 0 0 1 .47-.501c.205-.119.446-.178.721-.178.275 0 .514.059.716.178.205.115.364.282.475.501.112.216.167.469.167.758 0 .289-.055.543-.167.763-.111.216-.27.383-.475.501a1.424 1.424 0 0 1-.716.173Zm-.873-1.437c0 .32.077.571.23.752.154.181.368.274.643.277.275-.003.489-.096.643-.277.153-.181.229-.432.229-.752s-.076-.571-.229-.752c-.154-.181-.368-.274-.643-.277-.275.003-.489.096-.643.277-.153.181-.23.432-.23.752Zm4.131-1.437a1.108 1.108 0 0 1 1.045.674c.098.216.146.47.146.763 0 .293-.048.547-.146.763a1.138 1.138 0 0 1-.418.501 1.125 1.125 0 0 1-.627.173c-.181 0-.346-.037-.496-.11a.994.994 0 0 1-.376-.319h-.011v1.317h-.485v-3.709h.485v.376h.011a.994.994 0 0 1 .376-.319c.15-.073.315-.11.496-.11Zm-.93 1.437c0 .32.072.571.215.752.146.181.348.272.606.272.257 0 .458-.089.6-.266.143-.182.215-.434.215-.758s-.072-.575-.215-.752c-.142-.181-.343-.272-.6-.272-.258 0-.46.091-.606.272-.143.181-.215.432-.215.752Zm3.494 1.437c-.299 0-.538-.077-.715-.23-.174-.153-.262-.361-.262-.622 0-.143.032-.27.095-.381a.697.697 0 0 1 .261-.267c.09-.055.198-.099.324-.13.129-.032.296-.054.501-.068l.669-.052v-.173c0-.362-.209-.543-.627-.543-.348 0-.554.132-.616.397h-.486a.83.83 0 0 1 .344-.591c.199-.142.453-.214.763-.214.352 0 .62.075.805.225.188.15.282.378.282.684v1.238c0 .122.005.251.016.387.01.136.02.232.031.287h-.491a1.49 1.49 0 0 1-.026-.329v-.021h-.011a.893.893 0 0 1-.36.298c-.15.07-.315.105-.497.105Zm-.485-.836c0 .143.048.254.146.334a.656.656 0 0 0 .407.115c.237 0 .429-.068.575-.204a.691.691 0 0 0 .23-.522v-.293l-.622.058a2.94 2.94 0 0 0-.318.047.737.737 0 0 0-.199.073c-.146.08-.219.211-.219.392Zm2.491-1.985h.486v1.133h1.405v-1.133h.486v2.768h-.486v-1.217h-1.405v1.217h-.486v-2.768Zm4.202-.784h.506v1.531h.575c.031-.324.122-.605.272-.842.149-.24.345-.423.585-.548.244-.129.517-.193.82-.193.32 0 .608.073.862.219.258.146.458.357.601.632.146.275.219.599.219.972 0 .376-.073.702-.219.977a1.54 1.54 0 0 1-.601.637 1.69 1.69 0 0 1-.862.22c-.306 0-.582-.065-.825-.194a1.577 1.577 0 0 1-.596-.569 1.93 1.93 0 0 1-.261-.878h-.57v1.588h-.506v-3.552Zm1.583 1.771c0 .279.048.524.146.737.097.209.235.372.413.491.177.115.383.172.616.172.233 0 .437-.057.611-.172.178-.119.316-.282.413-.491.098-.213.146-.458.146-.737a1.7 1.7 0 0 0-.146-.731 1.103 1.103 0 0 0-.407-.486 1.097 1.097 0 0 0-.617-.173c-.24 0-.449.058-.627.173-.174.115-.31.277-.407.486a1.762 1.762 0 0 0-.141.731Zm3.465.047h1.75v.439h-1.75v-.439Zm2.142 1.301h.314c.104-.133.184-.307.24-.523.059-.219.101-.498.126-.836.027-.341.047-.794.057-1.358l.005-.402h2.403v3.119h.486v1.233h-.491v-.8h-2.648v.8h-.492v-1.233Zm2.639 0v-2.686h-1.427v.11c-.006.739-.038 1.306-.094 1.703-.055.394-.146.685-.271.873h1.792Zm2.884.48c-.421 0-.771-.099-1.05-.297a1.293 1.293 0 0 1-.512-.841h.523a.936.936 0 0 0 .355.538c.174.122.402.182.684.182.296 0 .521-.057.674-.172a.552.552 0 0 0 .235-.47c0-.213-.068-.364-.204-.455-.135-.094-.367-.141-.694-.141h-.429v-.423h.429c.289 0 .498-.047.627-.141.128-.094.193-.238.193-.434a.5.5 0 0 0-.214-.423c-.143-.104-.35-.156-.622-.156-.533 0-.855.226-.967.679h-.512c.056-.345.215-.613.476-.805.265-.195.599-.292 1.003-.292.411 0 .738.09.982.271.244.178.366.42.366.726a.845.845 0 0 1-.126.471.755.755 0 0 1-.37.282v.021c.188.062.33.163.428.303a.88.88 0 0 1 .146.517.924.924 0 0 1-.177.564c-.115.16-.281.284-.497.371a2.023 2.023 0 0 1-.747.125Zm2.154-3.599h2.476v.433h-1.97v1.098h1.871v.433h-1.871v1.155h1.986v.433h-2.492v-3.552Zm3.249 0h.507v1.531h1.891v-1.531h.507v3.552h-.507v-1.588h-1.891v1.588h-.507v-3.552Z"/><path stroke="#fff" stroke-width=".182" d="m212.809 118.023 62.472 37.81h51.746"/><path fill="#000" d="m122.466 86.962.623-2.361.33.182-.168.958-.672 2.453-.328-.18.215-1.052Zm-.765-3.124.601 2.98.19 1.328-.326-.179-.918-4.377.453.248Zm2.659 4.108.473-2.387.455.25-.745 3.464-.326-.179.143-1.148Zm-.891-3.136.722 3.1.267 1.317-.328-.18-.77-3.246-.217-1.17.326.179Zm4.457 5.09.453.25c-.018.234-.075.422-.172.562a.525.525 0 0 1-.417.231c-.181.012-.41-.058-.685-.209a2.238 2.238 0 0 1-.553-.431 2.884 2.884 0 0 1-.43-.599 3.344 3.344 0 0 1-.287-.723 3.488 3.488 0 0 1-.11-.8l-.009-.391c-.006-.275.02-.506.078-.694a.866.866 0 0 1 .264-.425.623.623 0 0 1 .428-.129c.169.008.359.07.571.186.26.143.481.32.662.53.182.209.325.44.428.692.105.25.172.512.201.783l-.453-.249a2.367 2.367 0 0 0-.133-.538 1.52 1.52 0 0 0-.261-.447 1.519 1.519 0 0 0-.435-.345.82.82 0 0 0-.401-.122.396.396 0 0 0-.284.123.738.738 0 0 0-.165.343 2.136 2.136 0 0 0-.047.535l.009.396c.004.192.025.382.064.57.039.189.097.366.172.534.075.167.169.318.283.453.113.133.246.242.399.325.193.107.347.156.46.15a.294.294 0 0 0 .253-.16c.057-.097.096-.231.117-.4ZM152.252 127.182a.453.453 0 0 0 .133-.127.175.175 0 0 0 .027-.141.485.485 0 0 0-.1-.182 2.032 2.032 0 0 0-.232-.248 2.706 2.706 0 0 1-.284-.308.855.855 0 0 1-.151-.293.418.418 0 0 1 .022-.279.677.677 0 0 1 .246-.261 1.37 1.37 0 0 1 .416-.187c.157-.04.323-.061.498-.06.179 0 .359.021.54.062.183.041.36.102.532.185.241.117.408.246.501.386a.474.474 0 0 1 .074.421c-.043.141-.148.268-.315.382l-.557-.27a.482.482 0 0 0 .191-.211.224.224 0 0 0-.025-.223c-.047-.074-.141-.144-.281-.212a1.333 1.333 0 0 0-.387-.123 1.02 1.02 0 0 0-.346.007.744.744 0 0 0-.279.115.295.295 0 0 0-.112.125.222.222 0 0 0 .003.15c.02.054.057.114.11.18.054.066.125.138.213.217.131.121.234.235.308.341.075.105.12.205.134.299a.408.408 0 0 1-.055.273.819.819 0 0 1-.256.252 1.38 1.38 0 0 1-.423.192 1.81 1.81 0 0 1-.495.06 2.356 2.356 0 0 1-.529-.066 2.725 2.725 0 0 1-.53-.192 1.826 1.826 0 0 1-.405-.263.857.857 0 0 1-.238-.318.462.462 0 0 1 .001-.345c.046-.116.148-.229.307-.337l.562.272a.577.577 0 0 0-.195.195.24.24 0 0 0-.014.19c.023.06.068.118.134.174a1.403 1.403 0 0 0 .631.282c.124.02.239.019.345-.001.107-.02.2-.058.281-.113Zm4.467 1.219-.165.112a3.29 3.29 0 0 1-.704.368 3.1 3.1 0 0 1-.733.179 2.711 2.711 0 0 1-.715-.008 2.29 2.29 0 0 1-.649-.199 1.28 1.28 0 0 1-.45-.333.609.609 0 0 1-.138-.404.821.821 0 0 1 .176-.448c.114-.154.284-.308.51-.462l.164-.112a3.195 3.195 0 0 1 1.44-.543 2.68 2.68 0 0 1 .717.009c.233.034.449.1.649.197.202.097.352.208.45.334.1.125.146.26.138.404a.82.82 0 0 1-.183.446 2.056 2.056 0 0 1-.507.46Zm-.726-.159.168-.115c.167-.114.296-.223.388-.327a.643.643 0 0 0 .168-.295.303.303 0 0 0-.051-.254.652.652 0 0 0-.266-.208 1.247 1.247 0 0 0-.399-.113 1.492 1.492 0 0 0-.445.014 2.069 2.069 0 0 0-.477.145 2.833 2.833 0 0 0-.496.275l-.168.115a2.076 2.076 0 0 0-.39.328.681.681 0 0 0-.17.298.331.331 0 0 0 .051.257.666.666 0 0 0 .266.205c.125.061.258.1.399.117.142.016.291.01.445-.017.156-.028.316-.078.479-.149.165-.071.33-.163.498-.276Zm2.608 1.773.56.27a2.417 2.417 0 0 1-1.49.309 2.427 2.427 0 0 1-.801-.234 1.223 1.223 0 0 1-.445-.33.589.589 0 0 1-.131-.393.803.803 0 0 1 .182-.432 2.17 2.17 0 0 1 .494-.441l.248-.169c.215-.147.441-.264.676-.353a3.05 3.05 0 0 1 .714-.174c.241-.029.476-.026.704.008.23.034.447.101.651.2.26.125.435.261.527.408a.492.492 0 0 1 .053.449c-.055.153-.171.304-.349.451l-.56-.271a.852.852 0 0 0 .233-.273.242.242 0 0 0-.01-.248c-.048-.081-.15-.159-.307-.235a1.24 1.24 0 0 0-.401-.117 1.476 1.476 0 0 0-.433.015 2.052 2.052 0 0 0-.459.144 2.998 2.998 0 0 0-.47.266l-.253.172a2.332 2.332 0 0 0-.368.301.722.722 0 0 0-.18.279.302.302 0 0 0 .029.251.6.6 0 0 0 .266.212c.16.077.312.124.457.14.146.016.29.007.429-.029a1.85 1.85 0 0 0 .434-.176Zm2.603.675-.395.268-1.184-.572.395-.269 1.184.573Zm2.603-.508-2.991 2.038-.561-.271 2.991-2.038.561.271Zm.021 1.535-.409.278-1.472-.712.409-.278 1.472.712Zm1.494-.802-.41.28-1.659-.802.411-.28 1.658.802Zm-1.613 1.438.047-.032a2.493 2.493 0 0 1 1.101-.406c.2-.023.397-.02.592.009.198.028.385.085.561.17.177.086.307.182.388.289a.487.487 0 0 1 .117.334.63.63 0 0 1-.138.352 1.503 1.503 0 0 1-.369.341l-.048.032c-.16.109-.334.198-.521.267a2.522 2.522 0 0 1-.581.138 2.344 2.344 0 0 1-.592-.009 1.926 1.926 0 0 1-.557-.171 1.111 1.111 0 0 1-.392-.288.511.511 0 0 1-.116-.333.655.655 0 0 1 .138-.352c.087-.118.21-.232.37-.341Zm.587.229-.048.032c-.1.068-.183.138-.249.209a.521.521 0 0 0-.129.211.241.241 0 0 0 .025.196.457.457 0 0 0 .209.168.89.89 0 0 0 .317.087c.113.01.227.003.341-.019a1.6 1.6 0 0 0 .34-.109c.113-.049.219-.108.319-.176l.047-.032c.099-.067.18-.137.244-.208a.508.508 0 0 0 .129-.213.242.242 0 0 0-.024-.198.428.428 0 0 0-.202-.167.896.896 0 0 0-.323-.087 1.204 1.204 0 0 0-.342.022c-.116.023-.23.06-.341.11-.11.049-.215.107-.313.174Zm3.371.855-1.8 1.226-.539-.261 2.223-1.515.515.249-.399.301Zm1.178.06-.464.311a1.84 1.84 0 0 0-.203-.117 1.078 1.078 0 0 0-.828-.051c-.089.03-.174.071-.257.122l-.131-.054c.14-.095.284-.176.433-.243.149-.066.299-.116.449-.149.151-.032.298-.043.439-.034.144.011.276.045.397.103a.734.734 0 0 1 .165.112Zm.082 2.035 1.699-1.158.541.262-2.222 1.515-.511-.247.493-.372Zm.538-.278.186.085c-.15.101-.305.186-.467.255a2.137 2.137 0 0 1-.492.142 1.605 1.605 0 0 1-.997-.142.97.97 0 0 1-.277-.189.356.356 0 0 1-.11-.222.398.398 0 0 1 .094-.254 1.31 1.31 0 0 1 .32-.286l1.436-.979.539.261-1.44.981a.713.713 0 0 0-.172.154.2.2 0 0 0-.044.129c.002.04.021.076.055.109a.521.521 0 0 0 .132.087c.153.075.302.114.444.12.146.005.285-.016.417-.062.133-.046.258-.109.376-.189Zm2.342.218-1.77 1.207-.54-.261 2.223-1.515.508.246-.421.323Zm-.664.351-.182-.09c.154-.104.317-.191.488-.259.172-.069.346-.116.523-.142.178-.028.352-.03.524-.008.174.022.34.071.498.148a.85.85 0 0 1 .257.177.317.317 0 0 1 .102.209.36.36 0 0 1-.086.241 1.213 1.213 0 0 1-.301.271l-1.481 1.009-.54-.261 1.438-.98c.108-.073.175-.14.201-.199a.144.144 0 0 0-.018-.162.511.511 0 0 0-.19-.14.903.903 0 0 0-.313-.089 1.137 1.137 0 0 0-.318.016c-.106.021-.21.053-.312.098a1.864 1.864 0 0 0-.29.161Zm1.633.637-.304-.087a2.16 2.16 0 0 1 .938-.358c.172-.024.343-.025.513-.003.17.021.331.069.483.143a.966.966 0 0 1 .284.192.322.322 0 0 1 .107.219.39.39 0 0 1-.1.251 1.404 1.404 0 0 1-.324.283l-1.438.98-.542-.262 1.44-.981c.113-.076.182-.144.207-.204a.134.134 0 0 0-.02-.158.577.577 0 0 0-.193-.137.842.842 0 0 0-.265-.077 1.18 1.18 0 0 0-.786.199Z"/></g><defs><clipPath id="a"><path fill="#fff" d="M0 0h345v202H0z"/></clipPath></defs></svg>