<svg xmlns="http://www.w3.org/2000/svg" width="14" height="14"><g clip-path="url(#a)"><path d="M6.82 1.44a.2.2 0 0 1 .36 0l1.684 3.414a.2.2 0 0 0 .15.11l3.767.546a.2.2 0 0 1 .11.342l-2.725 2.656a.2.2 0 0 0-.057.177l.643 3.752a.2.2 0 0 1-.29.21l-3.369-1.77a.2.2 0 0 0-.186 0l-3.369 1.77a.2.2 0 0 1-.29-.21l.643-3.752a.2.2 0 0 0-.057-.177L1.108 5.852a.2.2 0 0 1 .111-.342l3.767-.547a.2.2 0 0 0 .15-.11l1.685-3.412Z"/></g><defs><clipPath id="a"><path fill="#fff" d="M0 0h14v14H0z"/></clipPath></defs></svg>