<svg width="111" height="95"><path fill-rule="evenodd" d="M88.187 46.424c5.349-.096 10.624 2.687 13.57 7.756 4.289 7.392 1.879 16.606-5.312 20.74-7.189 4.124-16.434 1.607-20.712-5.779-4.29-7.392-1.86-16.606 5.328-20.74a14.829 14.829 0 0 1 7.126-1.977Zm-.16-6.385a21.102 21.102 0 0 0-10.19 2.808C67.563 48.75 64.146 62.025 70.142 72.35c5.597 9.655 17.549 13.506 27.47 9.151l6.86 11.817a3.243 3.243 0 0 0 4.413 1.186 3.206 3.206 0 0 0 1.184-4.39l-7.003-12.074c7.544-6.626 9.555-17.977 4.286-27.066-4.117-7.102-11.673-11.069-19.325-10.935Z" clip-rule="evenodd"/><path fill-rule="evenodd" d="M13.784.069C6.595.069.5 5.439.5 12.312V71.06c0 6.872 6.095 12.243 13.284 12.243h53.903c3.444 0 3.444-5.134 0-5.134H13.784c-4.672 0-8.123-3.258-8.123-7.11V19.415h81.156v15.087c0 3.418 5.168 3.418 5.168 0v-22.19C91.985 5.44 85.883.07 78.692.07H13.784Z" clip-rule="evenodd"/><path d="M37.54 35.868c-2.902 0-4.332 3.508-2.241 5.514l6.387 6.35-6.387 6.35a3.192 3.192 0 0 0-.009 4.54 3.25 3.25 0 0 0 4.572 0l6.38-6.35 6.381 6.35a3.251 3.251 0 0 0 4.574 0 3.2 3.2 0 0 0 .008-4.54l-6.389-6.35 6.39-6.35c2.124-2.042.594-5.619-2.358-5.514a3.246 3.246 0 0 0-2.226.982l-6.381 6.343-6.38-6.343a3.215 3.215 0 0 0-2.32-.982Z"/></svg>