<svg width="93" height="85"><path fill-rule="evenodd" d="M14.042.882C6.853.882.758 6.253.758 13.125v58.75c0 6.871 6.095 12.242 13.284 12.242h53.902c3.444 0 3.444-5.133 0-5.133H14.042c-4.673 0-8.123-3.258-8.123-7.11V20.228h81.156v15.087c0 3.417 5.168 3.417 5.168 0V13.125C92.243 6.253 86.14.882 78.95.882H14.042Z" clip-rule="evenodd"/><path d="M37.798 36.682c-2.903 0-4.333 3.507-2.242 5.513l6.388 6.35-6.388 6.351a3.191 3.191 0 0 0-.008 4.54 3.25 3.25 0 0 0 4.572 0l6.38-6.351 6.381 6.351a3.251 3.251 0 0 0 4.573 0 3.199 3.199 0 0 0 .009-4.54l-6.39-6.351 6.39-6.35c2.125-2.041.594-5.618-2.358-5.513a3.246 3.246 0 0 0-2.226.982l-6.38 6.343-6.381-6.343a3.215 3.215 0 0 0-2.32-.982Z"/><path d="M78.958 84.117c7.189 0 13.284-5.37 13.284-12.243V20.228h-5.16v51.646c0 3.852-3.451 7.11-8.124 7.11H25.056c-3.444 0-3.444 5.133 0 5.133h53.902Z"/></svg>