<svg width="31" height="31"><path d="M4.186 8.4h3.531c.474 1.16 1.608 2.004 2.952 2.004a3.16 3.16 0 0 0 2.95-2.003h13.23a1.18 1.18 0 0 0 1.186-1.186 1.18 1.18 0 0 0-1.186-1.186h-13.23C13.147 4.817 12.013 4 10.67 4a3.161 3.161 0 0 0-2.952 2.003H4.186A1.18 1.18 0 0 0 3 7.189C3 7.847 3.527 8.4 4.186 8.4Zm22.663 5.877h-3.532c-.474-1.16-1.607-2.002-2.951-2.002a3.16 3.16 0 0 0-2.951 2.002H4.184c-.658 0-1.185.528-1.185 1.186a1.18 1.18 0 0 0 1.186 1.186h13.229c.474 1.16 1.607 2.003 2.95 2.003a3.161 3.161 0 0 0 2.952-2.003h3.532a1.18 1.18 0 0 0 1.185-1.186 1.18 1.18 0 0 0-1.185-1.186Zm0 8.249h-13.23c-.474-1.16-1.607-2.003-2.95-2.003a3.16 3.16 0 0 0-2.952 2.003H4.186A1.18 1.18 0 0 0 3 23.71c0 .66.527 1.186 1.186 1.186h3.53c.475 1.16 1.608 2.003 2.952 2.003a3.161 3.161 0 0 0 2.952-2.003h13.229a1.18 1.18 0 0 0 1.185-1.186c0-.632-.527-1.185-1.185-1.185Z"/></svg>