<svg width="36" height="32"><g filter="url(#a)"><path d="M3.029 32H32.97a2.67 2.67 0 0 0 2.67-2.67V11.487H.36V29.33A2.67 2.67 0 0 0 3.029 32ZM19.64 18.051h9.846a1.23 1.23 0 0 1 0 2.462H19.64a1.23 1.23 0 1 1 0-2.462Zm0 4.923h6.564a1.23 1.23 0 1 1 0 2.462H19.64a1.23 1.23 0 0 1 0-2.462Zm-13.998-2.1a1.231 1.231 0 0 1 1.74 0l1.591 1.59 4.053-4.052a1.23 1.23 0 0 1 1.74 1.74l-4.923 4.923a1.231 1.231 0 0 1-1.74 0l-2.461-2.461a1.23 1.23 0 0 1 0-1.74ZM35.64 5.952a2.67 2.67 0 0 0-2.669-2.67h-.612V1.231a1.23 1.23 0 0 0-2.462 0v2.051h-4.102V1.231a1.23 1.23 0 0 0-2.462 0v2.051h-4.102V1.231a1.23 1.23 0 0 0-2.462 0v2.051h-4.102V1.231a1.23 1.23 0 0 0-2.462 0v2.051H6.103V1.231a1.23 1.23 0 1 0-2.461 0v2.051H3.03a2.67 2.67 0 0 0-2.67 2.67v3.484h35.28V5.952Z"/></g><defs><filter id="a" width="35.282" height="36" x=".359" y="0" color-interpolation-filters="sRGB" filterUnits="userSpaceOnUse"><feFlood flood-opacity="0" result="BackgroundImageFix"/><feBlend in="SourceGraphic" in2="BackgroundImageFix" result="shape"/><feColorMatrix in="SourceAlpha" result="hardAlpha" values="0 0 0 0 0 0 0 0 0 0 0 0 0 0 0 0 0 0 127 0"/><feOffset dy="4"/><feGaussianBlur stdDeviation="2"/><feComposite in2="hardAlpha" k2="-1" k3="1" operator="arithmetic"/><feColorMatrix values="0 0 0 0 0 0 0 0 0 0 0 0 0 0 0 0 0 0 0.25 0"/><feBlend in2="shape" result="effect1_innerShadow_49_5271"/></filter></defs></svg>